<svg version="1.1" id="Layer_1" xmlns="http://www.w3.org/2000/svg" xmlns:xlink="http://www.w3.org/1999/xlink" x="0px" y="0px" width="16.7px" height="16.8px" viewBox="-491 493.4 16.7 16.8" style="enable-background:new -491 493.4 16.7 16.8;" xml:space="preserve"><defs><filter id="dropshadow" width="2" height="2"><feGaussianBlur in="SourceAlpha" stdDeviation="1" /><feOffset dx="1" dy="1" result="offsetblur" /><feFlood flood-color="black" flood-opacity="0.3" \/><feComposite in2="offsetblur" operator="in" /><feMerge><feMergeNode/><feMergeNode in="SourceGraphic" /></feMerge></filter></defs><path id="XMLID_27_" class="st0" d="M-475,508.2c0,0.5-0.4,1-1,1h-3.9v-6.1h1.9l0.3-2.2h-2.3v-1.8c0-0.6,0.3-1,1-1h1.5v-2c0,0-0.7-0.1-1.6-0.1c-2.1,0-3.2,1.2-3.2,3v1.9h-1.9v2.2h1.9v6.1h-7.4c-0.5,0-1-0.4-1-1v-13.6c0-0.5,0.4-1,1-1h13.6c0.5,0,1,0.4,1,1V508.2z"/></svg>
