<?xml version="1.0" encoding="utf-8"?>
<!-- Generator: Adobe Illustrator 19.0.0, SVG Export Plug-In . SVG Version: 6.00 Build 0)  -->
<!DOCTYPE svg PUBLIC "-//W3C//DTD SVG 1.1//EN" "http://www.w3.org/Graphics/SVG/1.1/DTD/svg11.dtd">
<svg version="1.1" id="Layer_1" xmlns="http://www.w3.org/2000/svg" xmlns:xlink="http://www.w3.org/1999/xlink" x="0px" y="0px"
	 width="13.2px" height="16.7px" viewBox="-493 493.4 13.2 16.7" style="enable-background:new -493 493.4 13.2 16.7;"
	 xml:space="preserve">
<style type="text/css">
	.st0{fill:#333333;}
</style>
<path id="XMLID_29_" class="st0" d="M-486.2,493.9c1.7,0,3,0.5,4.1,1.5c1.1,1,1.6,2.2,1.6,3.6c0,1.8-0.4,3.3-1.3,4.4
	c-0.9,1.2-2.1,1.7-3.5,1.7c-0.5,0-0.9-0.1-1.3-0.3c-0.4-0.2-0.7-0.5-0.9-0.8c-0.3,1.4-0.5,2.2-0.6,2.5c-0.1,0.4-0.3,0.9-0.6,1.4
	c-0.3,0.5-0.5,0.8-0.6,1.1c-0.2,0.2-0.3,0.4-0.4,0.5c0,0-0.1,0.1-0.1,0.1c0,0-0.1,0-0.1-0.1c-0.2-1.5-0.1-2.7,0-3.4l1.1-4.9
	c-0.2-0.4-0.3-0.9-0.3-1.4c0-0.7,0.2-1.2,0.5-1.7c0.3-0.4,0.7-0.7,1.2-0.7c0.4,0,0.7,0.1,0.9,0.4c0.2,0.3,0.3,0.6,0.3,1
	c0,0.2,0,0.5-0.1,0.9c-0.1,0.3-0.2,0.7-0.4,1.2s-0.2,0.8-0.3,1.1c-0.1,0.5,0,0.9,0.3,1.2c0.3,0.3,0.7,0.5,1.2,0.5
	c0.8,0,1.5-0.5,2-1.4c0.5-0.9,0.8-2.1,0.8-3.4c0-1-0.3-1.8-1-2.5c-0.7-0.6-1.6-1-2.7-1c-1.3,0-2.4,0.4-3.2,1.3
	c-0.8,0.8-1.2,1.8-1.2,3c0,0.7,0.2,1.3,0.6,1.8c0.1,0.2,0.2,0.3,0.1,0.5l-0.2,0.7c-0.1,0.2-0.2,0.3-0.5,0.2
	c-0.6-0.3-1.1-0.7-1.4-1.3c-0.3-0.6-0.5-1.3-0.5-2.1c0-0.7,0.1-1.3,0.4-2c0.3-0.7,0.7-1.3,1.2-1.8c0.5-0.5,1.2-1,2-1.3
	S-487.2,493.9-486.2,493.9z"/>
</svg>
