<?xml version="1.0" standalone="no"?>
<!DOCTYPE svg PUBLIC "-//W3C//DTD SVG 1.1//EN" "http://www.w3.org/Graphics/SVG/1.1/DTD/svg11.dtd" >
<svg xmlns="http://www.w3.org/2000/svg" xmlns:xlink="http://www.w3.org/1999/xlink" version="1.1">
<metadata></metadata>
<defs>
<font id="webfontregular" horiz-adv-x="1024" >
<font-face units-per-em="2048" ascent="1638" descent="-410" />
<missing-glyph horiz-adv-x="409" />
<glyph unicode="&#xfb01;" horiz-adv-x="1175" d="M-80 -469q78 35 137.5 161t135.5 447l184 809h-135l4 17l145 45l23 69q78 231 221 348t348 117q139 0 224 -56t85 -142q0 -76 -52 -122t-130 -46q-43 0 -78 14t-53 39q59 4 96 47t37 106q0 57 -35 92t-94 35q-121 0 -205 -103t-129 -306l-20 -101h616l-203 -813 q-4 -10 -5 -20t-1 -18q0 -37 23.5 -58.5t66.5 -21.5q25 0 52.5 8t58.5 22l2 -4q-57 -59 -118.5 -87.5t-129.5 -28.5q-84 0 -133 45t-49 120q0 18 2 35t6 31l184 737h-383l-231 -948q-59 -240 -170 -352.5t-297 -120.5v4z" />
<glyph unicode="&#xfb02;" horiz-adv-x="1173" d="M-80 -469q82 37 143.5 169t131.5 439l182 809h-135l4 17l145 45l31 114q55 203 181 311.5t308 108.5q80 0 142.5 -28.5t101.5 -83.5q51 16 109.5 44.5t103.5 61.5h6l-327 -1350q-4 -10 -5.5 -20t-1.5 -18q0 -37 23.5 -58.5t64.5 -21.5q25 0 53.5 8t59.5 22l2 -4 q-59 -59 -120.5 -87.5t-129.5 -28.5q-84 0 -133 45t-49 120q0 14 2 31t8 35l260 1051q6 23 8.5 42t2.5 35q0 80 -46.5 126t-127.5 46q-102 0 -163 -91t-102 -304l-24 -115h235l-24 -53h-222l-229 -946q-59 -242 -171 -354.5t-298 -120.5v4z" />
<glyph unicode="&#xfb03;" horiz-adv-x="1798" d="M-80 -469q78 35 137.5 161t135.5 447l184 809h-135l4 17l145 45l15 49q63 223 206.5 341t350.5 118q98 0 167.5 -28t104.5 -81q74 68 166 101.5t203 33.5q139 0 224 -56t85 -142q0 -76 -51.5 -122t-130.5 -46q-43 0 -78 14t-54 39q59 4 96.5 47t37.5 106q0 57 -34 92 t-93 35q-123 0 -207 -103t-127 -306l-23 -101h619l-203 -813q-4 -10 -5 -20t-1 -18q0 -37 23.5 -58.5t66.5 -21.5q25 0 52.5 8t58.5 22l2 -4q-57 -59 -119 -87.5t-129 -28.5q-84 0 -133 45t-49 120q0 18 2 35t6 31l184 737h-385l-223 -907q-59 -240 -170 -352.5t-297 -120.5 v4q80 35 140.5 164t131.5 444l176 768h-379l-231 -948q-59 -240 -170 -352.5t-297 -120.5v4zM629 1001h381l26 78q4 14 10.5 29.5t18.5 46.5q-33 2 -61.5 15.5t-45.5 33.5q57 4 93 47t36 107q0 59 -32.5 93t-89.5 34q-117 0 -194 -99.5t-126 -314.5z" />
<glyph unicode="&#xfb04;" horiz-adv-x="1792" d="M-80 -469q78 35 137.5 161t135.5 447l184 809h-135l4 17l145 45l15 49q63 223 206.5 341t350.5 118q86 0 151.5 -22.5t104.5 -63.5q61 55 140 83.5t171 28.5q80 0 141.5 -28.5t100.5 -83.5q51 16 108 44.5t107 61.5h6l-330 -1350q-4 -10 -5 -20t-1 -18q0 -37 23.5 -58.5 t66.5 -21.5q25 0 52.5 8t58.5 22l2 -4q-57 -59 -119 -87.5t-129 -28.5q-84 0 -133 45t-49 120q0 18 2 35t6 31l260 1051q6 23 8 42t2 35q0 82 -45 127t-127 45q-102 0 -163.5 -91t-102.5 -304l-21 -115h234l-25 -53h-221l-221 -905q-59 -242 -170 -354.5t-297 -120.5v4 q80 35 140.5 164t131.5 444l176 768h-379l-231 -948q-59 -240 -170 -352.5t-297 -120.5v4zM629 1001h383l30 119q2 6 5.5 18.5t5.5 18.5q-29 4 -53.5 16.5t-41.5 30.5q57 4 93 47t36 107q0 59 -32.5 93t-89.5 34q-117 0 -194 -99.5t-126 -314.5z" />
<glyph horiz-adv-x="0" />
<glyph unicode="&#xd;" />
<glyph horiz-adv-x="0" />
<glyph horiz-adv-x="0" />
<glyph unicode=" "  horiz-adv-x="409" />
<glyph unicode="&#x09;" horiz-adv-x="409" />
<glyph unicode="&#xa0;" horiz-adv-x="409" />
<glyph unicode="!" horiz-adv-x="561" d="M166 141q0 68 46 115t114 47t113.5 -46t45.5 -116q0 -68 -46 -113.5t-113 -45.5q-66 0 -113 47t-47 112zM381 442l94 992h324l-408 -992h-10z" />
<glyph unicode="&#x22;" horiz-adv-x="843" d="M440 1358q29 43 72 69.5t88 26.5t80 -27.5t41 -68.5q-33 -41 -69 -102.5t-77 -141.5q-33 -68 -62.5 -132t-53.5 -126h-6q6 59 8 122.5t2 129.5q0 82 -6 144.5t-17 105.5zM799 1358q29 43 71.5 69.5t87.5 26.5t80 -27.5t41 -68.5q-63 -82 -128.5 -207t-135.5 -295h-4 q6 59 8 122.5t2 129.5q0 82 -6 144.5t-16 105.5z" />
<glyph unicode="#" horiz-adv-x="1300" d="M197 453l18 45h328l172 438h-357l19 45h354l178 453h45l-178 -453h309l179 453h47l-178 -453h327l-18 -45h-326l-172 -438h356l-20 -45h-352l-178 -453h-48l179 453h-310l-178 -453h-45l178 453h-329zM588 498h309l172 438h-309z" />
<glyph unicode="$" horiz-adv-x="1181" d="M137 274q0 84 58.5 138.5t142.5 54.5q41 -2 71.5 -17.5t51.5 -41.5q-59 -4 -95 -47.5t-36 -112.5q0 -68 46 -124t126 -85l153 616q-172 72 -239.5 152t-67.5 194q0 186 142.5 311.5t361.5 135.5l53 211h33l-51 -209h6q29 0 59.5 -3t61.5 -7l55 219h33l-55 -223 q137 -29 218 -94.5t81 -149.5q0 -74 -51.5 -122t-125.5 -48q-37 0 -73.5 17.5t-51.5 37.5q53 2 91.5 43t38.5 103q0 53 -37 97t-103 69l-143 -576q199 -80 270.5 -160t71.5 -194q0 -199 -157.5 -332t-391.5 -147l-53 -213h-33l53 210h-10q-35 0 -64.5 2.5t-54.5 6.5 l-55 -219h-33l55 223q-156 29 -254 108.5t-98 175.5zM532 29q35 -8 64 -11.5t63 -3.5l146 582q-27 10 -57.5 22.5t-61.5 24.5zM555 1096q0 -66 38 -115t120 -92l131 520q-127 -14 -207 -102t-82 -211zM692 16q152 14 246 109.5t94 232.5q0 72 -46 124.5t-152 99.5zM743 874 q18 -8 43 -18t76 -31l142 574q-23 8 -50.5 11t-60.5 3h-4h-12z" />
<glyph unicode="%" horiz-adv-x="1359" d="M180 0l1198 1372q-47 -35 -129 -59.5t-157 -24.5q-55 0 -111.5 13.5t-101.5 37.5q23 -33 35 -72.5t12 -84.5q0 -137 -101.5 -239.5t-240.5 -102.5q-106 0 -181 79.5t-75 192.5q0 137 102 239.5t242 102.5q41 0 78.5 -11t107.5 -46q78 -41 128 -54.5t106 -13.5 q102 0 192 33t191 111l20 -19l-1229 -1454h-86zM485 1022q-2 -74 20.5 -111t69.5 -37q72 0 132.5 132.5t60.5 265.5q0 78 -21.5 112.5t-66.5 34.5q-72 0 -132.5 -131t-62.5 -266zM793 262q0 137 102 239.5t242 102.5q106 0 181 -79.5t75 -192.5q0 -137 -102.5 -239.5 t-241.5 -102.5q-106 0 -181 80t-75 192zM950 172q0 -76 22.5 -111.5t67.5 -35.5q72 0 133.5 132t61.5 265q0 76 -22.5 111.5t-67.5 35.5q-72 0 -132.5 -131t-62.5 -266z" />
<glyph unicode="&#x26;" horiz-adv-x="1726" d="M178 322q0 152 121 265t317 156q-33 76 -49 143.5t-16 127.5q0 195 124 317.5t308 122.5q156 0 246 -67.5t90 -182.5q0 -141 -137.5 -254.5t-337.5 -156.5q29 -57 62.5 -116t70.5 -114q29 -45 57.5 -86t57.5 -78q12 14 97 122t138 165q88 96 163 141t144 45 q76 0 121 -38.5t45 -100.5q0 -66 -46 -110.5t-120 -47.5q12 16 19.5 37t7.5 43q0 41 -24.5 62.5t-71.5 21.5q-61 0 -124 -33.5t-132 -105.5q-29 -29 -62 -66.5t-131 -162.5q102 -127 201.5 -189.5t193.5 -62.5q68 0 114 16.5t97 57.5l4 -7q-68 -104 -157.5 -155t-206.5 -51 q-104 0 -196.5 52t-192.5 169q-109 -115 -210 -168t-208 -53q-164 0 -270.5 94t-106.5 248zM399 362q0 -125 73 -202.5t190 -77.5q68 0 137 37t147 114q-39 47 -80 101.5t-82 118.5q-53 76 -93 144.5t-66 127.5q-111 -57 -168.5 -149.5t-57.5 -213.5zM750 1130 q0 -68 21.5 -148.5t64.5 -170.5q147 61 225 163.5t78 233.5q0 94 -42 151.5t-114 57.5q-104 0 -168.5 -78.5t-64.5 -208.5z" />
<glyph unicode="'" horiz-adv-x="485" d="M440 1358q29 43 72 69.5t88 26.5t80 -27.5t41 -68.5q-33 -41 -69 -102.5t-77 -141.5q-33 -68 -62.5 -132t-53.5 -126h-6q6 59 8 122.5t2 129.5q0 82 -6 144.5t-17 105.5z" />
<glyph unicode="(" horiz-adv-x="681" d="M227 385q0 338 209 645t568 504h34q-258 -182 -432 -539.5t-174 -699.5q0 -186 40 -321.5t122 -225.5h-35q-162 113 -247 274.5t-85 362.5z" />
<glyph unicode=")" horiz-adv-x="681" d="M-35 -252q258 182 432 539.5t174 699.5q0 186 -39.5 321.5t-121.5 225.5h34q162 -113 247 -274.5t85 -362.5q0 -338 -209 -645t-567 -504h-35z" />
<glyph unicode="*" horiz-adv-x="831" d="M401 1296l115 185q6 -35 65.5 -107t129.5 -125q12 84 6 177.5t-25 123.5l209 -53q-31 -16 -80 -96t-78 -160q84 14 170 50t109 65l16 -217q-27 25 -117 46t-173 23q39 -76 98 -146.5t94 -84.5l-203 -82q16 33 9 127t-31 172q-59 -57 -108.5 -136t-51.5 -118l-141 168 q37 -4 123 31t155 84q-78 37 -167 59.5t-124 13.5z" />
<glyph unicode="+" horiz-adv-x="980" d="M248 631l12 57h373l92 371h57l-92 -371h371l-12 -57h-375l-92 -371h-58l92 371h-368z" />
<glyph unicode="," horiz-adv-x="471" d="M-6 -276l4 32q135 12 227.5 90t98.5 187q-20 -14 -42 -20.5t-46 -6.5q-55 0 -89 35t-34 90q0 70 46 114t117 44q72 0 114 -50.5t42 -134.5q0 -158 -128 -267t-310 -113z" />
<glyph unicode="-" horiz-adv-x="653" d="M205 530l20 84h510l-20 -84h-510z" />
<glyph unicode="." horiz-adv-x="471" d="M113 141q0 70 45.5 116t113.5 46t113 -47t45 -115q0 -66 -46 -112.5t-112 -46.5q-68 0 -113.5 46t-45.5 113z" />
<glyph unicode="/" horiz-adv-x="708" d="M-47 -252l1048 1786h62l-1047 -1786h-63z" />
<glyph unicode="0" horiz-adv-x="1331" d="M238 532q0 156 52 319t144 294q104 150 243.5 229.5t299.5 79.5q217 0 345 -153.5t128 -399.5q0 -156 -52.5 -318.5t-144.5 -293.5q-106 -150 -245.5 -229.5t-298.5 -79.5q-215 0 -343 153.5t-128 398.5zM481 371q0 -180 55.5 -264t172.5 -84q143 0 260.5 182t187.5 504 q23 104 35 193t12 161q0 180 -55 264t-172 84q-143 0 -261 -182t-186 -504q-25 -102 -37 -191t-12 -163z" />
<glyph unicode="1" horiz-adv-x="759" d="M49 0v8q16 6 72.5 23.5t81.5 27.5q45 18 66.5 43t31.5 72l270 1079q4 14 5.5 25.5t1.5 21.5q0 25 -16.5 42.5t-59.5 37.5q-16 6 -54 21.5t-57 23.5v9h469l-315 -1260q-4 -14 -5 -25.5t-1 -19.5q0 -27 14 -44t53 -36q16 -6 53.5 -20.5t53.5 -20.5v-8h-664z" />
<glyph unicode="2" horiz-adv-x="1128" d="M23 0v4q401 324 484 393.5t146 124.5q236 207 323 351.5t87 318.5q0 109 -54.5 168t-156.5 59q-137 0 -225 -95t-88 -239q0 -70 32.5 -106.5t94.5 -36.5q29 0 55.5 8t48.5 25h4q-43 -70 -103.5 -105.5t-138.5 -35.5q-88 0 -141 56t-53 146q0 180 152.5 299t365.5 119 q203 0 322.5 -88t119.5 -242q0 -143 -86 -263t-311 -275q-76 -53 -272.5 -179t-313.5 -206h355q209 0 297 39t186 153h4l-156 -393h-978z" />
<glyph unicode="3" horiz-adv-x="1110" d="M133 289q0 106 66.5 173.5t169.5 67.5q68 0 115.5 -33.5t58.5 -90.5h-4q-12 14 -27.5 20t-38.5 6q-59 0 -98 -53t-39 -131q0 -109 59.5 -170.5t165.5 -61.5q154 0 256.5 136.5t102.5 320.5q0 137 -72 210t-217 83v16q188 0 295.5 120t107.5 315q0 96 -47 148t-137 52 q-102 0 -171 -67.5t-69 -165.5q0 -49 23.5 -79t62.5 -30q20 0 36 3t28 9h4q-37 -51 -80 -74.5t-104 -23.5q-74 0 -120 43t-46 115q0 137 125 222t311 85q184 0 304 -85t120 -222q0 -154 -129 -256.5t-338 -122.5q160 -20 259 -107.5t99 -214.5q0 -211 -172 -338.5 t-432 -127.5q-172 0 -300 85t-128 224z" />
<glyph unicode="4" horiz-adv-x="1269" d="M117 393l2 4l1026 1053h155l-249 -999h84q86 0 130 26.5t103 120.5h4l-88 -354h-4q-16 96 -46 122.5t-114 26.5h-84l-35 -135q-10 -37 -15 -68.5t-5 -60.5q0 -43 17.5 -73.5t56.5 -51.5v-4h-469v4q72 31 109.5 85t68.5 169l33 135h-680zM242 451h571l199 792z" />
<glyph unicode="5" horiz-adv-x="1130" d="M147 291q0 104 67 171.5t167 67.5q68 0 117 -33.5t59 -90.5h-4q-12 14 -27.5 20t-38.5 6q-59 0 -98 -53t-39 -131q0 -109 58.5 -170.5t162.5 -61.5q162 0 267.5 151.5t105.5 354.5q0 154 -62.5 231.5t-187.5 77.5q-76 0 -163 -41.5t-150 -107.5h-2l239 764 q98 -18 206 -28.5t196 -10.5q152 0 217.5 20.5t122.5 71.5h4q-37 -162 -136.5 -240.5t-262.5 -78.5q-82 0 -183.5 16t-181.5 41l-137 -449q74 59 161 90t187 31q172 0 278.5 -101t106.5 -265q0 -240 -181 -401.5t-444 -161.5q-172 0 -298 85t-126 226z" />
<glyph unicode="6" horiz-adv-x="1206" d="M233 518q0 160 56.5 325t156.5 300q113 150 259.5 230.5t308.5 80.5q164 0 265 -74.5t101 -197.5q0 -92 -58 -150.5t-146 -58.5q-74 0 -122 37t-55 98h5q12 -12 28 -17.5t41 -5.5q55 0 91 45.5t36 114.5q0 80 -49 126t-137 46q-102 0 -198.5 -76.5t-176.5 -222.5 q-57 -104 -98 -230t-56 -245q68 119 172.5 184.5t227.5 65.5q162 0 268.5 -99.5t106.5 -254.5q0 -238 -167 -398.5t-413 -160.5q-205 0 -326 148t-121 390zM465 270q0 -119 54 -184.5t155 -65.5q145 0 246.5 172.5t101.5 385.5q0 123 -52 187t-151 64q-147 0 -250.5 -173 t-103.5 -386z" />
<glyph unicode="7" horiz-adv-x="1036" d="M260 -8q90 256 260 499.5t547 618.5l102 104h-505q-137 0 -210 -38.5t-155 -153.5h-4l147 432q14 -10 45 -15t80 -5h842v-4l-307 -336q-215 -231 -354.5 -497.5t-206.5 -578.5z" />
<glyph unicode="8" horiz-adv-x="1161" d="M168 334q0 143 115.5 246.5t296.5 132.5q-92 59 -139.5 134t-47.5 167q0 188 143.5 314t350.5 126q166 0 281.5 -84t115.5 -217t-104.5 -230.5t-261.5 -121.5q156 -78 226 -163t70 -194q0 -205 -160.5 -334.5t-389.5 -129.5q-219 0 -357.5 95t-138.5 259zM358 315 q0 -135 84 -216t222 -81q139 0 237 86.5t98 219.5q0 78 -45 142t-137 116l-221 120q-109 -51 -173.5 -154.5t-64.5 -232.5zM602 1126q0 -76 39 -134t119 -101l139 -78q96 49 157.5 151.5t61.5 219.5q0 104 -62.5 169.5t-166.5 65.5q-121 0 -204 -84t-83 -209z" />
<glyph unicode="9" horiz-adv-x="1206" d="M184 252q0 92 58.5 150.5t146.5 58.5q74 0 122 -37t54 -98h-4q-12 12 -28 17t-41 5q-55 0 -91 -45t-36 -115q0 -80 49 -126t137 -46q102 0 198.5 77t176.5 222q57 104 98 230.5t55 245.5q-68 -119 -172 -184.5t-227 -65.5q-162 0 -268.5 99t-106.5 255q0 238 167 398.5 t413 160.5q205 0 325.5 -148.5t120.5 -390.5q0 -160 -56 -324.5t-157 -299.5q-113 -150 -259 -230.5t-308 -80.5q-164 0 -265.5 74.5t-101.5 197.5zM543 856q0 -123 52 -187.5t150 -64.5q147 0 251 173t104 386q0 119 -54.5 184.5t-154.5 65.5q-145 0 -246.5 -172 t-101.5 -385z" />
<glyph unicode=":" horiz-adv-x="471" d="M113 141q0 70 45.5 116t113.5 46t113 -47t45 -115q0 -66 -46 -112.5t-112 -46.5q-68 0 -113.5 46t-45.5 113zM271 770q0 70 45.5 116t113.5 46t113 -47t45 -115q0 -66 -46 -112.5t-112 -46.5q-68 0 -113.5 46t-45.5 113z" />
<glyph unicode=";" horiz-adv-x="471" d="M-6 -276l4 32q135 12 227.5 90t98.5 187q-20 -14 -42 -20.5t-46 -6.5q-55 0 -89 35t-34 90q0 70 46 114t117 44q72 0 114 -50.5t42 -134.5q0 -158 -128 -267t-310 -113zM271 770q0 70 45.5 116t113.5 46t113 -47t45 -115q0 -66 -46 -112.5t-112 -46.5q-68 0 -113.5 46 t-45.5 113z" />
<glyph unicode="&#x3c;" horiz-adv-x="718" d="M219 643l4 25l666 338l-17 -70l-569 -285l426 -284l-12 -62z" />
<glyph unicode="=" horiz-adv-x="991" d="M221 504l12 55h803l-12 -55h-803zM287 766l12 55h803l-12 -55h-803z" />
<glyph unicode="&#x3e;" horiz-adv-x="718" d="M158 305l16 70l569 284l-426 285l13 62l497 -338l-4 -25z" />
<glyph unicode="?" horiz-adv-x="1011" d="M315 1124q0 147 127 238.5t318 91.5q188 0 309 -101.5t121 -258.5q0 -197 -153.5 -326t-415.5 -160l-43 -174h-46l95 377q178 18 279.5 112t101.5 248q0 113 -68 178.5t-182 65.5q-113 0 -183.5 -68.5t-70.5 -179.5q0 -51 26.5 -81.5t71.5 -30.5q23 0 41.5 5t32.5 15h4 q-35 -66 -83 -97.5t-110 -31.5q-74 0 -123 51.5t-49 126.5zM328 141q0 68 46 115t113 47q68 0 114 -46t46 -116q0 -68 -46 -113.5t-114 -45.5q-66 0 -112.5 46.5t-46.5 112.5z" />
<glyph unicode="@" horiz-adv-x="1869" d="M211 383q0 195 81 374t230 318q143 133 327.5 206t381.5 73q332 0 523.5 -160t191.5 -444q0 -125 -33 -237t-96 -200q-74 -104 -177.5 -164.5t-205.5 -60.5t-158.5 54.5t-61.5 156.5q-57 -109 -129.5 -160t-166.5 -51q-123 0 -197 84t-74 225q0 221 139.5 383t331.5 162 q92 0 156 -46t80 -120q39 55 104.5 101.5t124.5 58.5l-172 -600q-8 -27 -12 -48.5t-4 -37.5q0 -43 22.5 -63.5t69.5 -20.5q68 0 145.5 61.5t132.5 161.5q43 80 65.5 171t22.5 190q0 260 -168.5 409.5t-453.5 149.5q-172 0 -334 -75t-289 -212q-123 -131 -190.5 -298 t-67.5 -341q0 -305 187.5 -483.5t504.5 -178.5q201 0 365 51.5t303 157.5l6 -8q-125 -125 -301 -190.5t-377 -65.5q-379 0 -603 191.5t-224 525.5zM862 383q0 -96 36 -155.5t97 -59.5q84 0 148.5 75.5t101.5 217.5l51 184q6 25 10.5 48.5t4.5 45.5q0 66 -35 105t-92 39 q-123 0 -222.5 -158t-99.5 -342z" />
<glyph unicode="A" horiz-adv-x="1458" d="M0 0v4q68 45 107.5 85t113.5 144l873 1221h10l246 -1221q23 -111 43 -150.5t65 -78.5v-4h-485v4q78 37 107.5 69.5t29.5 82.5q0 12 -1 26.5t-5 32.5l-45 246h-600l-140 -195q-33 -43 -49 -81.5t-16 -73.5q0 -33 17.5 -59.5t52.5 -47.5v-4h-324zM498 516h553l-113 619z " />
<glyph unicode="B" horiz-adv-x="1341" d="M86 0v4q72 31 111 84t69 170l230 918q10 37 14 67.5t4 56.5q0 45 -18.5 76t-57.5 54v4h598q213 0 325 -75t112 -220q0 -168 -125 -275.5t-340 -128.5q172 -12 272 -87.5t100 -196.5q0 -211 -175 -331t-460 -120h-659zM453 53h239q193 0 315.5 115t122.5 297 q0 121 -74.5 179t-230.5 58h-211zM627 756h184q182 0 300 107.5t118 281.5q0 113 -66.5 174t-191.5 61h-189z" />
<glyph unicode="C" horiz-adv-x="1335" d="M236 557q0 176 61 337t174 288q119 131 275.5 201.5t326.5 70.5q63 0 122.5 -11t143.5 -42q45 -16 65.5 -21.5t37.5 -5.5q27 0 55.5 13.5t69.5 46.5l-80 -447h-4q-49 213 -147.5 316.5t-250.5 103.5q-244 0 -415.5 -243.5t-171.5 -577.5q0 -225 109.5 -357.5 t295.5 -132.5q162 0 283 73t229 234h12q-92 -205 -251.5 -314t-366.5 -109q-258 0 -415.5 159.5t-157.5 417.5z" />
<glyph unicode="D" horiz-adv-x="1521" d="M86 0v4q72 31 111 84t69 170l230 918q10 37 14 67.5t4 56.5q0 45 -18.5 76t-57.5 54v4h547q303 0 480 -148.5t177 -402.5q0 -397 -266 -640t-692 -243h-598zM453 53h231q309 0 504.5 247t195.5 615q0 223 -107.5 344t-309.5 121h-183z" />
<glyph unicode="E" horiz-adv-x="1325" d="M86 0v4q72 31 111 84t69 170l230 918q10 37 14 67.5t4 56.5q0 45 -18.5 76t-57.5 54v4h934q53 0 81 4t46 12l-18 -369h-4q-49 170 -133 234.5t-242 64.5h-320l-155 -622h254q129 0 195.5 44t148.5 181h4l-119 -479h-4q-14 123 -54 162t-184 39h-254l-161 -652h340 q156 0 273.5 68.5t287.5 284.5h4l-158 -406h-1114z" />
<glyph unicode="F" horiz-adv-x="1247" d="M86 0v4q72 31 111 84t69 170l230 918q10 37 14 67.5t4 56.5q0 47 -17.5 77t-58.5 53v4h918q53 0 80.5 4t46.5 12l-19 -369h-4q-53 174 -136 236.5t-239 62.5h-301l-159 -641h243q129 0 195.5 44t148.5 182h5l-119 -482h-4q-14 123 -54.5 162t-183.5 39h-246l-108 -440 q-8 -33 -12.5 -56.5t-4.5 -42.5q0 -47 28 -79.5t93 -61.5v-4h-520z" />
<glyph unicode="G" horiz-adv-x="1509" d="M236 557q0 176 64.5 338t184.5 287q125 129 285 200.5t328 71.5q63 0 121.5 -10t144.5 -43q47 -16 67.5 -21.5t38.5 -5.5q27 0 56.5 14.5t66.5 45.5l-77 -447h-5q-49 211 -149 315.5t-254 104.5q-135 0 -256 -85t-211 -243q-72 -125 -110.5 -273.5t-38.5 -297.5 q0 -211 89.5 -336t245.5 -125q150 0 252.5 77t139.5 218l18 70q12 41 17.5 69.5t5.5 53.5q0 45 -18.5 76.5t-59.5 54.5v4h471v-4q-72 -33 -112 -87.5t-66 -166.5l-115 -432h-4l-103 215q-82 -102 -197.5 -158.5t-248.5 -56.5q-258 0 -414.5 159.5t-156.5 417.5z" />
<glyph unicode="H" horiz-adv-x="1617" d="M86 0v4q72 31 111 84t69 170l230 918q10 37 14 67.5t4 56.5q0 45 -18.5 76t-57.5 54v4h475v-4q-72 -31 -110.5 -84.5t-69.5 -169.5l-102 -414h737l102 414q10 37 14.5 67.5t4.5 56.5q0 45 -17.5 76t-56.5 54v4h475v-4q-72 -31 -110.5 -84.5t-69.5 -169.5l-229 -918 q-10 -35 -15.5 -66.5t-5.5 -58.5q0 -47 17.5 -76.5t58.5 -52.5v-4h-473v4q72 31 109.5 85t68.5 169l113 447h-738l-112 -447q-10 -35 -15.5 -66.5t-5.5 -58.5q0 -45 18.5 -75.5t59.5 -53.5v-4h-475z" />
<glyph unicode="I" horiz-adv-x="641" d="M86 0v4q72 31 111 84t69 170l230 918q10 37 14 67.5t4 56.5q0 45 -18.5 76t-57.5 54v4h475v-4q-72 -31 -110.5 -84.5t-69.5 -169.5l-229 -918q-10 -45 -15.5 -73.5t-5.5 -51.5q0 -45 18.5 -75.5t59.5 -53.5v-4h-475z" />
<glyph unicode="J" horiz-adv-x="1142" d="M129 270q0 106 72.5 176t177.5 70q51 0 91 -16.5t62 -46.5q-88 -6 -138 -68.5t-50 -161.5q0 -94 50 -149.5t138 -55.5q104 0 176 82t115 256l207 820q10 37 14.5 67.5t4.5 56.5q0 47 -17.5 77t-58.5 53v4h475v-4q-72 -31 -111 -84.5t-69 -169.5l-193 -770 q-51 -207 -191.5 -316.5t-351.5 -109.5q-180 0 -291.5 79.5t-111.5 210.5z" />
<glyph unicode="K" horiz-adv-x="1466" d="M86 0v4q72 31 111 84t69 170l230 918q10 45 15 73.5t5 50.5q0 45 -18.5 76t-59.5 54v4h475v-4q-72 -31 -110.5 -84.5t-69.5 -169.5l-127 -508l772 589q29 23 43.5 46.5t14.5 46.5q0 25 -17.5 45t-52.5 35v4h401v-4q-86 -35 -165.5 -83.5t-206.5 -144.5l-441 -336 l334 -647q51 -94 93 -139t106 -76v-4h-483v4q37 20 53 39.5t16 44.5q0 16 -7 37.5t-24 54.5l-280 545l-174 -131l-84 -336q-10 -37 -14.5 -67.5t-4.5 -57.5q0 -47 17.5 -76.5t58.5 -52.5v-4h-475z" />
<glyph unicode="L" horiz-adv-x="1267" d="M86 0v4q72 31 111 84t69 170l230 918q10 45 15 73.5t5 50.5q0 45 -18.5 76t-59.5 54v4h475v-4q-72 -31 -110.5 -84t-69.5 -170l-280 -1123h309q154 0 271.5 70t299.5 305h4l-166 -428h-1085z" />
<glyph unicode="M" horiz-adv-x="1826" d="M49 0v4q86 37 142.5 109.5t84.5 183.5l222 887q8 35 12 60.5t4 45.5q0 47 -20.5 80t-65.5 60v4h358l222 -1106l741 1106h350v-4q-72 -31 -109.5 -85.5t-68.5 -168.5l-229 -918q-10 -45 -15.5 -73.5t-5.5 -51.5q0 -45 18.5 -75.5t57.5 -53.5v-4h-473v4q72 31 110.5 84 t69.5 170l254 1014l-864 -1295h-4l-265 1278l-237 -952q-8 -39 -12 -69.5t-4 -55.5q0 -66 24.5 -108.5t75.5 -65.5v-4h-373z" />
<glyph unicode="N" horiz-adv-x="1517" d="M49 0v4q86 37 142.5 109.5t84.5 183.5l220 887q8 35 12 60.5t4 45.5q0 49 -19.5 81t-64.5 59v4h330l585 -1084l197 780q8 41 12 70t4 53q0 63 -25.5 108.5t-76.5 68.5v4h375v-4q-86 -37 -142.5 -109t-84.5 -184l-287 -1149h-31l-709 1267l-237 -952q-8 -39 -12 -69.5 t-4 -55.5q0 -66 24.5 -108.5t75.5 -65.5v-4h-373z" />
<glyph unicode="O" horiz-adv-x="1531" d="M238 567q0 174 61 334t176 285q117 129 272.5 198.5t325.5 69.5q260 0 420 -163t160 -425q0 -174 -61.5 -333.5t-176.5 -284.5q-119 -129 -274.5 -198.5t-325.5 -69.5q-260 0 -418.5 162.5t-158.5 424.5zM489 455q0 -193 88.5 -311.5t237.5 -118.5q147 0 273 114.5 t208 319.5q49 123 76 260t27 260q0 195 -87 312.5t-239 117.5q-145 0 -272 -115.5t-207 -318.5q-49 -125 -77 -262.5t-28 -257.5z" />
<glyph unicode="P" horiz-adv-x="1308" d="M86 0v4q72 31 111 84t69 170l230 918q10 37 14 67.5t4 56.5q0 47 -17.5 77t-58.5 53v4h631q219 0 339 -86t120 -246q0 -233 -183.5 -368.5t-480.5 -135.5h-274l-88 -354q-10 -31 -14.5 -55.5t-4.5 -45.5q0 -49 27 -80.5t88 -58.5v-4h-512zM604 653h217q207 0 333 126 t126 335q0 133 -71.5 199.5t-215.5 66.5h-209z" />
<glyph unicode="Q" horiz-adv-x="1531" d="M238 567q0 174 61 334t176 285q117 129 272.5 198.5t325.5 69.5q260 0 420 -163t160 -425q0 -258 -131 -475t-351 -328q55 -98 70.5 -122.5t32.5 -42.5q35 -45 76 -65.5t88 -20.5q53 0 90.5 20.5t70.5 65.5h5q-33 -123 -103.5 -184.5t-179.5 -61.5q-68 0 -120 28.5 t-91 90.5q-23 33 -41 75.5t-57 157.5q-45 -12 -95.5 -18t-101.5 -6q-260 0 -418.5 162.5t-158.5 424.5zM489 455q0 -109 30 -198t85 -146q37 98 105.5 150t160.5 52q74 0 133.5 -35.5t110.5 -113.5q53 55 99.5 130t82.5 165q49 123 76 260t27 260q0 195 -87 312.5 t-239 117.5q-145 0 -272 -115.5t-207 -318.5q-49 -125 -77 -262.5t-28 -257.5zM629 88q39 -31 86 -47t100 -16q45 0 89 11t87 34q-37 100 -77 141t-97 41q-66 0 -113 -41t-75 -123z" />
<glyph unicode="R" horiz-adv-x="1456" d="M86 0v4q72 31 111 84t69 170l230 918q10 45 15 73.5t5 50.5q0 45 -18.5 76t-59.5 54v4h660q211 0 330.5 -83t119.5 -235q0 -188 -145.5 -305t-376.5 -127q121 -16 186.5 -81.5t77.5 -180.5q2 -16 4 -35.5t9 -56.5q2 -33 4 -47.5t4 -26.5q14 -104 48 -157.5t111 -94.5v-4 h-354q-16 41 -26.5 87t-18.5 134q-2 12 -3 29.5t-5 56.5q-6 55 -9 82t-5 47q-14 133 -63.5 184.5t-149.5 51.5h-230l-102 -414q-10 -45 -15.5 -73.5t-5.5 -51.5q0 -45 18.5 -75.5t59.5 -53.5v-4h-475zM621 725h241q201 0 315.5 106.5t114.5 292.5q0 125 -68.5 190.5 t-199.5 65.5h-240z" />
<glyph unicode="S" horiz-adv-x="1198" d="M125 6l74 451h4q49 -207 172 -322t295 -115q154 0 245 89.5t91 230.5q0 92 -56.5 155.5t-240.5 143.5q-106 45 -155.5 72.5t-84.5 58.5q-53 49 -78.5 109.5t-25.5 136.5q0 195 145 316.5t371 121.5q61 0 120.5 -10t149.5 -39q49 -16 71.5 -21.5t39.5 -5.5q25 0 51 9.5 t67 35.5l-88 -393h-4q-41 180 -147.5 281.5t-259.5 101.5q-141 0 -224.5 -79t-83.5 -208q0 -63 25 -112t74 -90q31 -23 72.5 -45.5t134.5 -61.5q106 -45 153 -71.5t82 -57.5q53 -45 79 -104.5t26 -132.5q0 -209 -156 -340t-393 -131q-63 0 -127 10t-164 41q-53 16 -75.5 20 t-39.5 4q-31 0 -61.5 -10t-77.5 -39z" />
<glyph unicode="T" horiz-adv-x="1488" d="M285 1012l174 438q12 -8 35.5 -12t70.5 -4h1063q47 0 74 4t43 12l-35 -438h-4q-37 113 -60.5 168t-50.5 92q-41 57 -100 83.5t-147 26.5h-144l-284 -1136q-8 -41 -12.5 -66.5t-4.5 -46.5q0 -45 19.5 -75.5t62.5 -53.5v-4h-487v4q80 35 119.5 87t64.5 155l283 1136h-136 q-90 0 -162.5 -27.5t-146.5 -90.5q-39 -35 -86 -85.5t-145 -166.5h-4z" />
<glyph unicode="U" horiz-adv-x="1447" d="M289 410q0 39 5 77.5t15 77.5l154 611q10 37 14 67.5t4 56.5q0 45 -18.5 76t-56.5 54v4h475v-4q-72 -31 -111 -84.5t-70 -169.5l-153 -609q-10 -41 -15.5 -81t-5.5 -78q0 -152 86 -238t238 -86q201 0 322.5 117.5t183.5 369.5l145 584q10 37 14.5 66.5t4.5 56.5 q0 55 -22.5 93t-67.5 59v4h335v-4q-80 -33 -125.5 -96.5t-72.5 -172.5l-150 -598q-74 -299 -226.5 -441t-395.5 -142q-233 0 -369.5 115.5t-136.5 314.5z" />
<glyph unicode="V" horiz-adv-x="1441" d="M358 1430v4h478v-4q-78 -37 -108 -70t-30 -82q0 -12 1 -26.5t6 -32.5l159 -924l619 872q31 45 47 83t16 71t-17.5 60.5t-51.5 48.5v4h323v-4q-68 -45 -107.5 -85t-113.5 -145l-864 -1220h-10l-238 1220q-23 111 -43.5 151t-65.5 79z" />
<glyph unicode="W" horiz-adv-x="1982" d="M358 1430v4h476v-4q-80 -33 -108 -66t-28 -92v-28.5t2 -26.5l86 -838l457 768l-6 63q-8 78 -27.5 122t-76.5 98v4h471v-4q-80 -29 -109 -63t-29 -97q0 -8 2 -24.5t2 -24.5l66 -863l504 830q25 39 36 70.5t11 58.5q0 35 -19.5 62.5t-60.5 50.5v4h334v-4 q-80 -51 -121 -94.5t-92 -125.5l-756 -1230h-14l-107 1075l-639 -1075h-16l-133 1230q-8 80 -27.5 123t-77.5 97z" />
<glyph unicode="X" horiz-adv-x="1464" d="M6 0v4q63 33 115.5 71t169.5 148l524 498l-229 493q-43 92 -76 134.5t-84 81.5v4h461v-4q-39 -23 -58.5 -51.5t-19.5 -61.5q0 -20 5 -41t15 -43l175 -379l378 373q31 29 45.5 56.5t14.5 53.5q0 25 -13.5 47.5t-39.5 45.5v4h344v-4q-72 -37 -129.5 -80t-155.5 -140 l-420 -407l270 -584q39 -84 73 -129t87 -86v-4h-461v4q43 25 62.5 53.5t19.5 65.5q0 16 -6 35.5t-16 42.5l-217 467l-478 -461q-33 -33 -47 -59.5t-14 -51.5t12.5 -48t38.5 -44v-4h-346z" />
<glyph unicode="Y" horiz-adv-x="1331" d="M354 1430v4h443v-4q-49 -25 -75 -59t-26 -75q0 -14 3 -29.5t10 -29.5l202 -573l478 559q25 29 37 56.5t12 51.5q0 29 -16.5 54.5t-49.5 44.5v4h322v-4q-59 -37 -104.5 -77t-133.5 -143l-524 -610l-88 -354q-10 -37 -14.5 -63.5t-4.5 -49.5q0 -45 19.5 -75.5t62.5 -53.5 v-4h-471v4q78 35 118 87t64 155l91 354l-226 610q-31 88 -57.5 132t-71.5 88z" />
<glyph unicode="Z" horiz-adv-x="1372" d="M57 0v4l1258 1376h-320q-111 0 -189.5 -21.5t-148.5 -70.5q-43 -31 -94 -80t-160 -172h-4l168 414q12 -8 37 -12t70 -4h968v-4l-1247 -1377h283q137 0 232.5 20.5t170.5 65.5q63 37 129 101.5t166 193.5h4l-168 -434h-1155z" />
<glyph unicode="[" horiz-adv-x="641" d="M113 -252l446 1786h449v-8l-279 -64l-410 -1640l246 -66v-8h-452z" />
<glyph unicode="\" horiz-adv-x="708" d="M426 1534h55l160 -1786h-55z" />
<glyph unicode="]" horiz-adv-x="641" d="M-47 -244l278 64l410 1640l-246 66v8h453l-447 -1786h-448v8z" />
<glyph unicode="^" horiz-adv-x="921" d="M291 844l526 610h8l224 -610h-76l-176 487l-418 -487h-88z" />
<glyph unicode="_" horiz-adv-x="655" d="M18 -217l21 84h510l-21 -84h-510z" />
<glyph unicode="`" d="M696 1534h244q-10 -100 3 -196.5t50 -198.5h-10q-109 90 -179.5 187t-107.5 208z" />
<glyph unicode="a" horiz-adv-x="1191" d="M168 340q0 270 170 476t403 206q106 0 179 -56.5t98 -154.5q43 74 112.5 128t157.5 83q-27 -72 -54.5 -171t-53.5 -210l-113 -453q-5 -22 -5 -40q0 -53 44 -72q23 -8 49 -8q45 0 107 32l2 -4q-57 -59 -119 -87.5t-129 -28.5q-86 0 -134 47q-46 45 -46 124v7q0 20 5 44.5 t13 51.5q-74 -137 -168 -205.5t-209 -68.5q-143 0 -226 97t-83 263zM403 330q0 -119 45.5 -181.5t129.5 -62.5q100 0 190 99.5t131 254.5l47 189q10 35 14.5 66.5t4.5 58.5q0 92 -48.5 145t-128.5 53q-154 0 -269.5 -196.5t-115.5 -425.5z" />
<glyph unicode="b" horiz-adv-x="1200" d="M141 -18q27 74 56.5 178t72.5 274l222 889q6 18 8 37.5t2 38.5q0 41 -20.5 68.5t-84.5 62.5v4h379l-198 -793q74 133 176 207t217 74q147 0 228 -98.5t81 -274.5q0 -272 -163 -470.5t-396 -198.5q-113 0 -198 58t-113 150q-35 -66 -110 -123t-159 -83zM469 254 q0 -96 50 -149.5t136 -53.5q162 0 275.5 186.5t113.5 426.5q0 121 -44 185t-128 64q-111 0 -207 -98t-130 -250l-48 -184q-8 -37 -13 -68.5t-5 -58.5z" />
<glyph unicode="c" horiz-adv-x="944" d="M174 385q0 254 179 445.5t429 191.5q127 0 207 -61.5t80 -159.5q0 -82 -57.5 -136.5t-141.5 -54.5q-57 0 -96 29t-45 76q12 -8 29.5 -13.5t29.5 -5.5q57 0 92 40t35 108q0 66 -33.5 102.5t-95.5 36.5q-143 0 -259.5 -189.5t-116.5 -406.5q0 -152 65.5 -231.5t186.5 -79.5 q90 0 164.5 44t146.5 138h10q-61 -133 -168.5 -205.5t-247.5 -72.5q-174 0 -283.5 111.5t-109.5 293.5z" />
<glyph unicode="d" horiz-adv-x="1210" d="M168 340q0 274 164 478t395 204q111 0 187.5 -64.5t91.5 -164.5l127 530q6 29 8 46t2 30q0 41 -20.5 68.5t-84.5 62.5v4h377l-328 -1346q-4 -10 -5 -20t-1 -18q0 -37 23.5 -58.5t66.5 -21.5q25 0 52.5 8t58.5 22l2 -4q-57 -59 -118.5 -87.5t-129.5 -28.5q-84 0 -133 45 t-49 122q0 14 5 45t13 66q-74 -137 -171 -207.5t-212 -70.5q-147 0 -234 97t-87 263zM403 332q0 -119 47.5 -181.5t139.5 -62.5q106 0 196.5 95.5t128.5 250.5l48 182q8 29 12 57.5t4 57.5q0 96 -54.5 154.5t-138.5 58.5q-156 0 -269.5 -190.5t-113.5 -421.5z" />
<glyph unicode="e" horiz-adv-x="962" d="M174 383q0 256 182.5 447.5t436.5 191.5q131 0 214 -61.5t83 -159.5q0 -154 -172.5 -238t-501.5 -92q-2 -25 -4 -49.5t-2 -46.5q0 -145 67.5 -221t194.5 -76q92 0 173 44t154 136h9q-61 -131 -175.5 -204.5t-259.5 -73.5q-180 0 -289.5 110.5t-109.5 292.5zM420 496 q229 20 352 114t123 252q0 55 -26.5 88t-73.5 33q-123 0 -232.5 -144.5t-142.5 -342.5z" />
<glyph unicode="f" horiz-adv-x="618" d="M-80 -469q78 35 137.5 161t135.5 447l184 809h-135l4 17l145 45l27 94q66 223 182.5 331.5t294.5 108.5q117 0 187.5 -47t70.5 -125q0 -66 -49 -107.5t-121 -41.5q-37 0 -69.5 13t-45.5 32q53 8 83 47t30 96q0 49 -24.5 74.5t-71.5 25.5q-84 0 -135.5 -85t-94.5 -291 l-26 -134h252l-25 -53h-238l-231 -948q-59 -240 -170 -352.5t-297 -120.5v4z" />
<glyph unicode="g" horiz-adv-x="1118" d="M-8 -219q0 92 92 149q89 54 230 54h10q-76 14 -123 67t-47 127q0 88 66.5 153.5t178.5 92.5q-57 39 -87.5 95t-30.5 120q0 168 133 275.5t344 107.5q80 0 147.5 -24.5t116.5 -69.5q53 63 107.5 97t103.5 34q63 0 100 -33t37 -90q0 -68 -48 -108t-124 -40v5 q16 12 24.5 29.5t8.5 43.5q0 37 -22.5 56.5t-65.5 19.5q-27 0 -53.5 -8t-51.5 -23q33 -37 49.5 -81t16.5 -89q0 -168 -133 -275.5t-344 -107.5q-55 0 -106.5 12.5t-94.5 37.5q-53 -16 -84 -50t-31 -79q0 -43 30 -69t83 -28l360 -8q145 -4 226.5 -63.5t81.5 -165.5 q0 -188 -176.5 -302t-444.5 -114q-207 0 -343 68.5t-136 183.5zM162 -225q0 -96 83 -151.5t224 -55.5q190 0 304 70.5t114 191.5q0 70 -47 99.5t-162 33.5l-236 6q-133 0 -206.5 -50t-73.5 -144zM506 553q0 -78 29.5 -118t89.5 -40q86 0 146 75t91 216q8 45 12.5 80t4.5 63 q0 78 -30 117t-89 39q-86 0 -146.5 -74.5t-91.5 -216.5q-8 -47 -12 -80.5t-4 -60.5z" />
<glyph unicode="h" horiz-adv-x="1185" d="M162 0l330 1323q6 18 8 37.5t2 38.5q0 41 -20.5 68.5t-84.5 62.5v4h379l-215 -860q80 162 194.5 255t241.5 93q100 0 154.5 -58.5t54.5 -162.5q0 -27 -3 -55.5t-9 -57.5l-125 -500q-4 -10 -5 -20t-1 -18q0 -39 23.5 -59.5t64.5 -20.5q25 0 52.5 8t58.5 22l2 -4 q-57 -59 -119 -87.5t-129 -28.5q-84 0 -133 45t-49 120q0 18 2 35t6 31l119 469q8 41 11 64.5t3 41.5q0 53 -26 79t-79 26q-111 0 -213 -118t-149 -314l-115 -459h-231z" />
<glyph unicode="i" horiz-adv-x="565" d="M199 145q0 18 2 35t6 31l145 580q6 23 9.5 40t3.5 31q0 41 -19.5 71t-71.5 64v4h363l-203 -813q-4 -10 -5 -20t-1 -18q0 -37 23.5 -58.5t64.5 -21.5q25 0 52.5 7t60.5 23v-4q-57 -59 -118.5 -87.5t-129.5 -28.5q-84 0 -133 45t-49 120zM430 1331q0 66 45 111t113 45 q61 0 100 -39t39 -98q0 -66 -45 -111t-113 -45q-61 0 -100 39t-39 98z" />
<glyph unicode="j" horiz-adv-x="534" d="M-328 -301q0 72 52.5 118t132.5 46q33 0 60.5 -8.5t43.5 -22.5q-55 -14 -87 -57t-32 -107q0 -51 26 -81.5t71 -30.5q63 0 108 81.5t107 327.5l204 826q6 23 9.5 40t3.5 31q0 41 -19.5 72t-70.5 63v4h362l-229 -925q-74 -293 -184.5 -423t-290.5 -130q-117 0 -192 49 t-75 127zM442 1331q0 66 45 111t113 45q61 0 100 -39t39 -98q0 -66 -44.5 -111t-112.5 -45q-61 0 -100.5 39t-39.5 98z" />
<glyph unicode="k" horiz-adv-x="1163" d="M160 0l332 1323q6 29 8 46t2 30q0 41 -19.5 68.5t-85.5 62.5v4h377l-227 -907q98 180 234.5 287.5t271.5 107.5q96 0 153.5 -53.5t57.5 -141.5q0 -137 -113 -229t-311 -123l135 -291q25 -51 63.5 -78.5t83.5 -27.5q23 0 49.5 8t55.5 25v-5q-47 -59 -116 -92.5t-138 -33.5 q-82 0 -134.5 38.5t-84.5 126.5l-150 355q23 -10 47.5 -14.5t61.5 -4.5q139 0 239.5 84t100.5 205q0 61 -33 96t-90 35q-123 0 -255 -143.5t-183 -356.5l-101 -401h-231z" />
<glyph unicode="l" horiz-adv-x="559" d="M197 145q0 18 2 35t6 31l270 1112q6 31 9 50.5t3 25.5q0 41 -20.5 68.5t-85.5 62.5v4h377l-328 -1346q-4 -10 -5 -20t-1 -18q0 -37 24.5 -58.5t65.5 -21.5q25 0 52.5 8t58.5 22l2 -4q-57 -59 -119 -87.5t-129 -28.5q-84 0 -133 44.5t-49 120.5z" />
<glyph unicode="m" horiz-adv-x="1781" d="M168 0l197 791q6 18 8 35.5t2 35.5q0 41 -19.5 72t-68.5 63v4h362l-82 -325q84 168 193.5 257t232.5 89q96 0 150.5 -59.5t54.5 -159.5q0 -29 -6 -61.5t-16 -65.5q84 168 193.5 257t232.5 89q98 0 150 -56.5t52 -158.5q0 -27 -4 -56.5t-12 -62.5l-125 -500q-4 -10 -5 -20 t-1 -18q0 -39 23.5 -59.5t64.5 -20.5q25 0 52.5 8t57.5 22l3 -4q-57 -59 -119 -87.5t-129 -28.5q-84 0 -133.5 45t-49.5 120q0 18 2.5 35t6.5 31l118 473q10 39 14.5 65.5t4.5 47.5q0 47 -23.5 70.5t-72.5 23.5q-109 0 -208.5 -117t-146.5 -315l-114 -459h-232l170 684 q10 39 14.5 65.5t4.5 47.5q0 47 -23.5 70.5t-73.5 23.5q-109 0 -207 -117t-147 -315l-115 -459h-231z" />
<glyph unicode="n" horiz-adv-x="1193" d="M168 0l197 791q6 18 8 35.5t2 35.5q0 41 -19.5 72t-68.5 63v4h362l-82 -327q80 162 196 255t243 93q98 0 153 -59.5t55 -161.5q0 -29 -4 -57.5t-10 -55.5l-125 -500q-4 -10 -5 -20t-1 -18q0 -37 23.5 -58.5t64.5 -21.5q25 0 52.5 7t60.5 23v-4q-57 -59 -118.5 -87.5 t-129.5 -28.5q-84 0 -133 45t-49 120q0 18 2 35t6 31l119 469q8 41 11 64.5t3 41.5q0 53 -25.5 79t-76.5 26q-111 0 -213.5 -117t-151.5 -315l-115 -459h-231z" />
<glyph unicode="o" horiz-adv-x="1099" d="M174 385q0 260 173 448.5t415 188.5q186 0 300 -110.5t114 -295.5q0 -260 -173 -448t-415 -188q-184 0 -298 109.5t-116 295.5zM410 303q0 -143 44 -214t132 -71q92 0 175 106t132 282q25 88 37 159.5t12 130.5q0 143 -45 215t-133 72q-92 0 -174 -104.5t-133 -282.5 q-23 -82 -35 -156.5t-12 -136.5z" />
<glyph unicode="p" horiz-adv-x="1206" d="M55 -457l310 1248q6 18 8 35.5t2 35.5q0 41 -19.5 72t-68.5 63v4h362l-65 -260q74 133 176 207t217 74q147 0 228 -98.5t81 -274.5q0 -270 -161 -469.5t-390 -199.5q-111 0 -189.5 64.5t-94.5 164.5l-164 -666h-232zM479 266q0 -96 52.5 -152.5t138.5 -56.5 q156 0 268.5 185.5t112.5 421.5q0 121 -44 185t-128 64q-111 0 -207.5 -98t-130.5 -250l-45 -182q-8 -29 -12.5 -57.5t-4.5 -59.5z" />
<glyph unicode="q" horiz-adv-x="1173" d="M166 340q0 274 169 478t406 204q111 0 190 -59.5t103 -155.5q41 74 113 130t160 85q-20 -61 -45 -145t-64 -236l-280 -1098h-232l186 715q-74 -137 -171 -207.5t-214 -70.5q-147 0 -234 98t-87 262zM403 330q0 -121 47.5 -182.5t139.5 -61.5q106 0 196.5 97.5 t131.5 252.5l47 189q6 31 10 59.5t4 56.5q0 96 -52 152.5t-136 56.5q-156 0 -272 -194.5t-116 -425.5z" />
<glyph unicode="r" horiz-adv-x="942" d="M168 0l197 791q6 18 8 35.5t2 35.5q0 41 -19.5 72t-68.5 63v4h362l-90 -362q92 199 188.5 291t204.5 92q76 0 123 -44t47 -116q0 -88 -56 -144t-144 -56q-27 0 -49.5 7t-34.5 17q41 6 66.5 39t25.5 80q0 39 -21.5 59.5t-60.5 20.5q-96 0 -196.5 -137.5t-145.5 -319.5 l-107 -428h-231z" />
<glyph unicode="s" horiz-adv-x="899" d="M113 205q0 61 40 98t101 37q37 -2 64.5 -12.5t48.5 -28.5q-39 -2 -63.5 -31.5t-24.5 -77.5q0 -78 57 -127t151 -49q102 0 168 52.5t66 134.5q0 59 -43.5 107.5t-145.5 103.5q-141 76 -196 143.5t-55 151.5q0 133 115.5 224t281.5 91q139 0 232.5 -56.5t93.5 -144.5 q0 -57 -38 -92t-98 -35q-31 0 -56.5 11.5t-43.5 31.5q35 2 55.5 32t20.5 75q0 68 -46 105.5t-132 37.5q-90 0 -148.5 -48t-58.5 -124q0 -57 36.5 -99t149.5 -108q156 -90 209 -153.5t53 -147.5q0 -139 -124 -233t-304 -94q-160 0 -263 63t-103 162z" />
<glyph unicode="t" horiz-adv-x="690" d="M203 158q0 14 2 30.5t8 34.5l178 725h-133l2 17q152 39 261.5 134t191.5 255h16l-92 -353h276l-22 -53h-266l-183 -733q-2 -14 -3 -21.5t-1 -13.5q0 -47 31 -73.5t84 -26.5q49 0 100.5 25.5t94.5 70.5l4 -6q-70 -96 -154 -143t-186 -47q-96 0 -152.5 48t-56.5 130z" />
<glyph unicode="u" horiz-adv-x="1185" d="M217 217q0 23 3 46.5t9 49.5l121 478q6 18 8 35.5t2 35.5q0 41 -19 72t-71 63v4h363l-174 -696q-4 -25 -7 -45t-3 -37q0 -55 27.5 -83.5t82.5 -28.5q106 0 203.5 114.5t146.5 311.5l117 464h231l-202 -813q-4 -10 -5 -20t-1 -18q0 -37 23.5 -58.5t64.5 -21.5q25 0 52 7 t60 23v-4q-57 -59 -118.5 -87.5t-129.5 -28.5q-84 0 -133 45t-49 118q0 20 4 44t33 135q-82 -168 -186.5 -255t-225.5 -87q-104 0 -165.5 64.5t-61.5 172.5z" />
<glyph unicode="v" horiz-adv-x="1091" d="M199 718v13q0 119 55 197t143 78q23 0 47.5 -6.5t73.5 -26.5q45 -18 70.5 -25.5t48.5 -11.5l49 78h43q-170 -293 -220 -420t-50 -229q0 -129 60.5 -205t164.5 -76q158 0 268.5 166t110.5 373q0 106 -46 165.5t-130 59.5q-45 0 -78 -18.5t-47 -51.5q-2 6 -2 12.5v16.5 q0 94 56 154.5t142 60.5q102 0 160 -74t58 -200q0 -129 -46.5 -265.5t-128.5 -244.5q-92 -125 -211.5 -191.5t-250.5 -66.5q-143 0 -226.5 78.5t-83.5 211.5q0 113 78 237t285 324l-86 -4q-160 -10 -216.5 -32.5t-88.5 -85.5q-2 4 -2 9z" />
<glyph unicode="w" horiz-adv-x="1669" d="M201 707v24q0 119 55 197t143 78q23 0 49.5 -6.5t83.5 -26.5q49 -18 75 -25.5t48 -11.5l45 78h43q-188 -309 -243.5 -445.5t-55.5 -242.5q0 -104 47.5 -165t129.5 -61q84 0 145 70t106 219l123 402q6 23 9.5 40t3.5 31q0 39 -19.5 70t-68.5 65v4h358l-148 -485 q-25 -84 -37 -153.5t-12 -122.5q0 -98 41 -147.5t123 -49.5q84 0 159 58.5t132 164.5q45 84 70.5 183.5t25.5 185.5q0 106 -38 161.5t-111 55.5q-43 0 -74 -17.5t-45 -52.5q-2 6 -2 13.5v19.5q0 90 50 148.5t130 58.5q98 0 154.5 -71.5t56.5 -194.5q0 -125 -41 -258 t-115 -244q-86 -131 -197.5 -202.5t-232.5 -71.5q-129 0 -218 76.5t-95 195.5q-49 -125 -140 -198.5t-200 -73.5q-135 0 -216 79.5t-81 210.5q0 106 81 230.5t304 330.5l-90 -4q-164 -10 -220 -33.5t-91 -86.5z" />
<glyph unicode="x" horiz-adv-x="1101" d="M70 121q0 63 41 104t100 41q16 0 31.5 -4t29.5 -10q-23 -6 -36 -23.5t-13 -42.5q0 -35 20.5 -55t55.5 -20q55 0 113.5 62.5t128.5 195.5l45 90l-76 301q-18 78 -54 118t-85 40q-23 0 -49.5 -9.5t-53.5 -25.5v4q47 63 115 100t139 37q80 0 129 -48t76 -157l45 -176l8 21 q78 180 165 269t183 89q63 0 105.5 -39t42.5 -98q0 -61 -41 -101.5t-100 -40.5q-14 0 -31 3.5t-33 11.5q25 6 38 22.5t13 40.5q0 35 -19.5 54.5t-55.5 19.5q-57 0 -119 -63.5t-125 -192.5l-19 -43l88 -348q20 -84 57.5 -127t88.5 -43q27 0 55.5 10t56.5 31v-4 q-45 -61 -113.5 -98t-142.5 -37q-84 0 -138 51t-81 153l-57 230l-35 -74q-82 -188 -165 -274t-181 -86q-61 0 -104 40.5t-43 100.5z" />
<glyph unicode="y" horiz-adv-x="1146" d="M57 -236q0 70 47.5 114t120.5 44q35 0 69 -13t58 -36q-47 -6 -73.5 -44t-26.5 -97q0 -80 47 -127t129 -47q133 0 219 114.5t158 407.5l61 250q-92 -176 -193.5 -259t-221.5 -83q-106 0 -169 65.5t-63 171.5q0 23 3 47.5t9 49.5l119 469q6 27 8 43t2 28q0 41 -19 72 t-71 63v4h363l-170 -688q-6 -23 -9 -42t-3 -40q0 -55 25.5 -83.5t76.5 -28.5q115 0 216 114.5t151 311.5l114 456h232l-211 -835q-86 -342 -233.5 -492.5t-393.5 -150.5q-158 0 -264.5 67.5t-106.5 173.5z" />
<glyph unicode="z" horiz-adv-x="1050" d="M106 106q0 123 113 215.5t393 188.5q203 68 316.5 124t158.5 109q-29 -18 -57.5 -28t-52.5 -10q-39 0 -82 8t-129 35q-102 31 -158.5 41t-109.5 10q-78 0 -134.5 -34t-89.5 -99h-4q39 172 120 264t196 92q57 0 112.5 -26.5t145.5 -110.5q80 -74 122 -95.5t85 -21.5 q31 0 49 17.5t18 48.5q0 50 -48 76q-31 17 -71 17q-21 0 -43 -5q14 41 46 63.5t75 22.5q47 0 79 -34t32 -85q0 -80 -52.5 -147.5t-162.5 -129.5q-55 -29 -128 -59.5t-214 -81.5q-193 -68 -285 -115t-135 -96q27 16 56.5 25.5t58.5 9.5q39 0 87 -9.5t146 -39.5 q113 -35 172.5 -46.5t112.5 -11.5q76 0 135 36t86 100h4q-25 -170 -105.5 -261.5t-205.5 -91.5q-59 0 -116.5 27t-158.5 113q-88 76 -135 98t-92 22q-39 0 -60.5 -20.5t-21.5 -56.5q0 -55 54 -78q27 -12 57.5 -12t66.5 12q-16 -47 -49 -71.5t-76 -24.5q-53 0 -87 34.5 t-34 91.5z" />
<glyph unicode="{" horiz-adv-x="735" d="M188 635l2 12q121 4 203 79t117 218q6 23 9 48.5l9 76.5q4 63 9.5 96t13.5 64q33 135 158 220t292 85q29 0 52.5 -2t44.5 -6v-8q-127 0 -223.5 -79t-129.5 -212q-6 -23 -9 -51.5t-9 -90.5q-6 -66 -10 -97.5t-10 -55.5q-29 -121 -136.5 -199t-236.5 -92 q98 -10 167.5 -69.5t69.5 -149.5q0 -41 -12 -86t-49 -131q-41 -94 -54.5 -144.5t-13.5 -97.5q0 -92 58.5 -145.5t161.5 -53.5v-8q-23 -4 -49.5 -6t-55.5 -2q-141 0 -225 64.5t-84 171.5q0 41 11 87t50 136q41 94 53.5 145.5t12.5 98.5q0 88 -47 134t-140 50z" />
<glyph unicode="|" horiz-adv-x="393" d="M106 -252l445 1786h59l-444 -1786h-60z" />
<glyph unicode="}" horiz-adv-x="735" d="M-43 -236q127 0 223 79t129 212q6 23 9.5 51.5t9.5 90.5q6 66 10 97.5t10 55.5q29 121 136.5 199t236.5 92q-98 10 -168 69.5t-70 149.5q0 41 12.5 86t49.5 131q41 94 54 144.5t13 97.5q0 92 -58 145.5t-161 53.5v8q23 4 49.5 6t55.5 2q141 0 225 -64.5t84 -171.5 q0 -41 -11.5 -87t-50.5 -136q-41 -94 -53 -145.5t-12 -98.5q0 -88 47 -134t139 -50l-2 -12q-121 -4 -202.5 -79t-116.5 -218q-6 -23 -9.5 -48.5t-9.5 -76.5q-4 -63 -9 -96t-13 -64q-33 -135 -158 -220t-293 -85q-29 0 -52.5 2t-43.5 6v8z" />
<glyph unicode="~" d="M221 500q61 135 145.5 207.5t178.5 72.5q37 0 73.5 -10t102.5 -43q61 -31 96 -40t68 -9q68 0 127 29.5t106 85.5h4q-61 -133 -145 -206t-178 -73q-37 0 -74 10.5t-102 40.5q-61 31 -96 40t-68 9q-68 0 -129.5 -29.5t-104.5 -84.5h-4z" />
<glyph unicode="&#xa1;" horiz-adv-x="561" d="M41 -305l408 991h10l-94 -991h-324zM354 987q0 68 46 114t114 46q66 0 113 -47t47 -113q0 -68 -46 -115t-114 -47t-114 46.5t-46 115.5z" />
<glyph unicode="&#xa2;" horiz-adv-x="1048" d="M188 401q0 258 179.5 439.5t447.5 181.5h4l49 199h39l-49 -201q133 -10 216 -78t83 -162q0 -82 -52 -133t-130 -51q-57 0 -94 26.5t-43 75.5q10 -8 25.5 -13t31.5 -5q51 0 83 39t32 102q0 68 -43 111t-119 51l-217 -895q23 -6 44 -8t42 -2q98 0 179 44t159 138h12 q-66 -133 -183.5 -205.5t-267.5 -72.5h-5h-7l-53 -215h-37l53 217q-168 16 -273.5 132.5t-105.5 284.5zM428 403q0 -113 43 -190.5t125 -112.5l215 883q-156 -10 -269.5 -187.5t-113.5 -392.5z" />
<glyph unicode="&#xa3;" horiz-adv-x="1325" d="M57 135q0 80 61.5 130t157.5 50q43 0 92.5 -10t114.5 -35q16 43 29.5 95.5t28.5 117.5q10 43 18 96.5t14 118.5h-229l10 39h226q14 102 21 146.5t13 79.5q43 225 204 358t388 133q145 0 236.5 -65.5t91.5 -165.5q0 -96 -60.5 -153.5t-152.5 -57.5q-55 0 -97 21.5 t-55 53.5q84 -10 139.5 43.5t55.5 143.5q0 68 -40 107.5t-110 39.5q-106 0 -185 -89t-120 -251l-73 -297q-2 -8 -6.5 -23.5t-6.5 -23.5h310l-11 -39h-309q-41 -143 -93 -262t-116 -211q123 -47 206 -65.5t157 -18.5q127 0 199.5 47.5t72.5 130.5q0 27 -5 45.5t-17 36.5 q61 -27 93.5 -74t32.5 -110q0 -121 -84.5 -197.5t-216.5 -76.5q-68 0 -132 17t-128 52q-55 31 -135 90.5t-88 65.5q-74 -92 -158 -140t-168 -48q-80 0 -128 43t-48 112zM102 135q0 -51 35 -83t94 -32q74 0 132.5 51.5t101.5 153.5q-49 27 -95 39t-96 12q-76 0 -124 -39 t-48 -102z" />
<glyph unicode="&#xa5;" horiz-adv-x="1331" d="M313 510l11 41h372l13 49l-33 100h-314l11 39h289l-158 471q-25 80 -51.5 125t-77.5 95v4h442v-4q-49 -25 -73.5 -60t-24.5 -76q0 -12 2 -25.5t8 -31.5l182 -573l455 548q29 35 43 66t14 57q0 29 -15 52.5t-46 42.5v4h311v-4q-68 -43 -115 -86.5t-122 -133.5l-389 -471 h286l-10 -39h-309l-82 -100l-12 -49h364l-12 -41h-363l-65 -264q-10 -37 -14.5 -63.5t-4.5 -49.5q0 -45 19.5 -75.5t62.5 -53.5v-4h-471v4q78 35 118 87t64 155l68 264h-373z" />
<glyph unicode="&#xa7;" horiz-adv-x="1128" d="M109 -233q0 76 48 123t126 47q35 0 66.5 -13.5t45.5 -34.5q-57 -12 -89 -56t-32 -112q0 -70 44 -109.5t122 -39.5q117 0 193 88t76 217q0 49 -21.5 93t-87.5 118l-223 254q-59 66 -87 126t-28 124q0 102 60.5 195.5t173.5 164.5q-6 25 -10.5 48.5t-4.5 46.5 q0 164 135.5 285.5t321.5 121.5q143 0 237.5 -64.5t94.5 -162.5q0 -76 -48 -123t-126 -47q-35 0 -67 13t-46 34q57 12 89 56t32 112q0 70 -44 109.5t-122 39.5q-117 0 -192.5 -88t-75.5 -217q0 -49 21.5 -93t86.5 -118l223 -254q59 -66 87 -126t28 -124q0 -102 -60.5 -195 t-172.5 -165q6 -25 10 -48t4 -46q0 -164 -135 -286t-322 -122q-143 0 -237 64.5t-94 163.5zM416 721q0 -39 18.5 -78t57.5 -84l276 -321q43 -53 68.5 -95.5t40.5 -83.5q37 35 61.5 96.5t24.5 116.5q0 39 -18.5 78t-57.5 84l-277 322q-43 53 -68.5 95t-39.5 83 q-37 -35 -61.5 -96.5t-24.5 -116.5z" />
<glyph unicode="&#xa8;" d="M506 1300q0 63 43 107.5t106 44.5q59 0 98.5 -38t39.5 -95q0 -61 -44 -104.5t-110 -43.5q-57 0 -95 37t-38 92zM895 1300q0 63 43 107.5t106 44.5q59 0 98.5 -38t39.5 -95q0 -61 -44 -104.5t-110 -43.5q-57 0 -95 37t-38 92z" />
<glyph unicode="&#xa9;" horiz-adv-x="1658" d="M272 653q0 166 58.5 311.5t167.5 258.5q111 111 257 171t308 60q295 0 491.5 -191.5t196.5 -482.5q0 -166 -58 -311t-167 -258q-111 -111 -257.5 -171t-307.5 -60q-295 0 -492 191t-197 482zM315 657q0 -274 185.5 -454t464.5 -180q311 0 527 216t216 537 q0 274 -185.5 454.5t-461.5 180.5q-313 0 -529.5 -216t-216.5 -538zM598 618q0 227 149.5 385t364.5 158q35 0 67.5 -6t82.5 -22q29 -10 42 -13.5t25 -3.5q20 0 42 11.5t42 31.5l-57 -289h-2q-33 135 -89.5 197.5t-140.5 62.5q-137 0 -234 -148t-97 -347q0 -125 64.5 -200 t172.5 -75q92 0 162 40t131 130l6 -2q-55 -125 -154.5 -193.5t-226.5 -68.5q-156 0 -253 98.5t-97 253.5z" />
<glyph unicode="&#xaa;" horiz-adv-x="913" d="M297 545l12 43h592l-10 -43h-594zM319 983q0 186 119 327.5t281 141.5q74 0 123 -38t67 -107q27 49 81 87t122 58q-18 -53 -38.5 -126t-35.5 -138l-77 -307q-2 -8 -3.5 -15.5t-1.5 -11.5q0 -25 14.5 -39t41.5 -14q16 0 37.5 6t44.5 18v-10q-41 -41 -81 -60.5t-87 -19.5 q-61 0 -100.5 37t-39.5 96q0 8 2.5 23.5t6.5 30.5q-51 -94 -116 -140.5t-142 -46.5q-100 0 -159 66.5t-59 181.5zM494 979q0 -78 28.5 -119t83.5 -41q66 0 127.5 69.5t83.5 164.5l35 127q6 25 8 44t2 33q0 59 -31.5 98.5t-80.5 39.5q-100 0 -178 -132.5t-78 -283.5z" />
<glyph unicode="&#xab;" horiz-adv-x="966" d="M166 498v4q164 76 321.5 177t278.5 206h8q-78 -113 -168 -219.5t-170 -182.5q59 -102 93 -189t53 -179h-9q-68 106 -174 206.5t-233 176.5zM535 498v4q164 76 321.5 177t278.5 206h8q-78 -113 -168 -219.5t-170 -182.5q59 -102 93 -189t53 -179h-9q-68 106 -174 206.5 t-233 176.5z" />
<glyph unicode="&#xad;" horiz-adv-x="653" d="M205 530l20 84h510l-20 -84h-510z" />
<glyph unicode="&#xae;" horiz-adv-x="999" d="M362 1036q0 168 129.5 293t299.5 125q168 0 271 -105.5t103 -279.5q0 -168 -129 -292t-301 -124q-168 0 -270.5 105.5t-102.5 277.5zM393 1038q0 -160 94.5 -257t249.5 -97q160 0 279 113.5t119 269.5q0 162 -95.5 259t-251.5 97q-158 0 -276.5 -114.5t-118.5 -270.5z M506 827v7q33 18 42 30.5t17 38.5l78 305q6 27 2 40.5t-31 29.5v6h238q70 0 107.5 -27.5t37.5 -78.5q0 -55 -52 -93t-122 -38v-5q41 -4 62.5 -22.5t25.5 -56.5l9 -54q4 -33 13 -47t40 -28v-7h-144q-10 33 -13 45.5t-3 26.5l-10 76q-4 41 -19.5 54t-54.5 13h-22l-35 -139 q-6 -25 -3 -38t31 -31v-7h-194zM713 1063h32q61 0 100.5 31.5t39.5 85.5q0 37 -24.5 58.5t-65.5 21.5h-33z" />
<glyph unicode="&#xaf;" d="M524 1227l19 73h585l-16 -73h-588z" />
<glyph unicode="&#xb0;" horiz-adv-x="559" d="M354 1217q0 92 75 163.5t173 71.5q92 0 152.5 -62.5t60.5 -156.5q0 -92 -75 -164t-173 -72q-92 0 -152.5 62.5t-60.5 157.5zM401 1219q0 -76 48.5 -126.5t121.5 -50.5q78 0 138.5 57.5t60.5 131.5q0 76 -49 126t-123 50q-78 0 -137.5 -57.5t-59.5 -130.5z" />
<glyph unicode="&#xb1;" horiz-adv-x="980" d="M156 272l14 54h801l-15 -54h-800zM274 739l13 58h372l70 280h55l-69 -280h372l-12 -58h-375l-71 -282h-56l72 282h-371z" />
<glyph unicode="&#xb2;" horiz-adv-x="559" d="M244 840v6q41 33 130 105.5t128 105.5q100 88 135 143t35 127q0 39 -20.5 60.5t-55.5 21.5q-53 0 -85 -30.5t-32 -82.5q0 -31 12.5 -46t36.5 -15q16 0 25.5 3t17.5 9h4q-20 -35 -48.5 -52t-65.5 -17q-39 0 -64.5 24.5t-25.5 63.5q0 78 66.5 127t162.5 49q94 0 149.5 -38 t55.5 -106q0 -59 -35 -109t-115 -102q-45 -31 -135 -77.5t-104 -55.5h143q78 0 112 14.5t74 59.5h11l-72 -188h-440z" />
<glyph unicode="&#xb3;" horiz-adv-x="561" d="M293 965q0 49 33.5 80.5t85.5 31.5q33 0 56.5 -13t29.5 -38h-2q-4 4 -10.5 6t-12.5 2q-29 0 -47 -24.5t-18 -59.5q0 -41 20.5 -65.5t54.5 -24.5q55 0 92 59.5t37 137.5q0 45 -22.5 66.5t-73.5 25.5v16q68 2 110 53.5t42 124.5q0 35 -14.5 52.5t-43.5 17.5 q-39 0 -65.5 -28.5t-26.5 -71.5q0 -20 9.5 -32.5t23.5 -14.5q6 0 11 1t9 3l4 -2q-16 -18 -36.5 -27.5t-49.5 -9.5q-37 0 -60 20.5t-23 53.5q0 61 58 99t146 38q86 0 141.5 -36t55.5 -93q0 -66 -55.5 -107t-145.5 -49q68 -8 111 -44t43 -87q0 -90 -78 -142.5t-199 -52.5 q-78 0 -134 36t-56 98z" />
<glyph unicode="&#xb4;" d="M610 1139q72 90 119 182t84 213h268q-86 -111 -199.5 -208t-263.5 -187h-8z" />
<glyph unicode="&#xb6;" horiz-adv-x="1062" d="M154 -274q0 84 56 138t136 54q47 0 77 -23.5t32 -64.5h-2q-10 8 -22.5 12t-29.5 4q-45 0 -75.5 -41t-30.5 -100t44 -97t114 -38q111 0 198.5 90t124.5 236l373 1490h-80l-283 -1132h-49l82 328q-223 0 -366.5 99t-143.5 259q0 223 202 358.5t513 135.5h309l-2 -4 q-94 -45 -123.5 -85t-52.5 -128l-330 -1321q-41 -170 -150.5 -273.5t-252.5 -103.5q-119 0 -193.5 56t-74.5 151z" />
<glyph unicode="&#xb7;" horiz-adv-x="473" d="M217 557q0 70 45.5 116t113.5 46t113 -47t45 -115q0 -66 -46 -112.5t-112 -46.5q-68 0 -113.5 46t-45.5 113z" />
<glyph unicode="&#xb8;" d="M186 -330l21 19q20 -39 62 -62.5t89 -23.5q68 0 109 37.5t41 101.5q0 49 -34 71.5t-118 26.5l140 170h39l-111 -133q111 6 180.5 -34t69.5 -111q0 -84 -77 -136.5t-194 -52.5q-80 0 -139 35t-78 92z" />
<glyph unicode="&#xb9;" horiz-adv-x="409" d="M242 840l2 12q70 12 91.5 26.5t29.5 47.5l104 422q8 33 -6 46t-78 27l2 13h254l-129 -508q-8 -35 6 -48.5t76 -25.5l-2 -12h-350z" />
<glyph unicode="&#xba;" horiz-adv-x="806" d="M248 545l10 43h592l-10 -43h-592zM324 1010q0 182 122.5 313t290.5 131q131 0 212 -77t81 -203q0 -180 -124 -312.5t-294 -132.5q-129 0 -208.5 77t-79.5 204zM498 958q0 -96 28.5 -142t85.5 -46q63 0 118.5 68.5t92.5 187.5q16 66 23.5 113t7.5 86q0 96 -28.5 142 t-88.5 46q-61 0 -116.5 -68.5t-92.5 -187.5q-16 -63 -23 -111.5t-7 -87.5z" />
<glyph unicode="&#xbb;" horiz-adv-x="966" d="M74 115q82 119 171 224t167 177q-59 102 -93 189.5t-53 179.5h8q68 -106 174.5 -206.5t233.5 -176.5v-4q-164 -76 -321.5 -177.5t-278.5 -205.5h-8zM441 115q82 119 171 224t167 177q-59 102 -93 189.5t-53 179.5h8q68 -106 174.5 -206.5t233.5 -176.5v-4 q-164 -76 -321.5 -177.5t-278.5 -205.5h-8z" />
<glyph unicode="&#xbc;" horiz-adv-x="829" d="M135 158v4l422 436h119l-103 -408h29q35 0 52.5 9.5t45.5 46.5h9l-37 -144h-8q-10 37 -22.5 46.5t-47.5 9.5h-29l-12 -54q-10 -41 -6 -59t26 -37v-8h-241v8q35 20 48 38.5t23 57.5l15 54h-283zM201 190h225l78 314zM215 700l8 33h748l-8 -33h-748zM440 840l2 12 q72 12 92.5 26.5t28.5 47.5l107 422q8 33 -6.5 46t-77.5 27l2 13h252l-127 -508q-8 -33 6 -47.5t76 -26.5l-2 -12h-353z" />
<glyph unicode="&#xbd;" horiz-adv-x="829" d="M176 0l2 6q33 27 125 101.5t131 109.5q100 86 134 142.5t34 127.5q0 39 -19.5 60.5t-54.5 21.5q-53 0 -85.5 -30.5t-32.5 -81.5q0 -31 13 -46.5t38 -15.5q14 0 23.5 3t19.5 10h2q-18 -35 -47 -52.5t-68 -17.5t-63.5 24.5t-24.5 63.5q0 78 66.5 127t162.5 49 q94 0 149.5 -38t55.5 -105q0 -59 -35.5 -109.5t-115.5 -103.5q-45 -29 -136.5 -77t-103.5 -54h143q80 0 114 14t75 59h10l-72 -188h-440zM215 700l8 33h748l-8 -33h-748zM440 840l2 12q72 12 92.5 26.5t28.5 47.5l107 422q8 33 -6.5 46t-77.5 27l2 13h252l-127 -508 q-8 -33 6 -47.5t76 -26.5l-2 -12h-353z" />
<glyph unicode="&#xbe;" horiz-adv-x="829" d="M135 158v4l422 436h119l-103 -408h29q35 0 52.5 9.5t45.5 46.5h9l-37 -144h-8q-10 37 -22.5 46.5t-47.5 9.5h-29l-12 -54q-10 -41 -6 -59t26 -37v-8h-241v8q35 20 48 39t23 57l15 54h-283zM201 190h225l78 314zM215 700l8 33h748l-8 -33h-748zM420 965q0 49 33.5 80.5 t87.5 31.5q31 0 55.5 -14t30.5 -37h-2q-4 4 -10.5 6t-12.5 2q-29 0 -47 -24.5t-18 -59.5q0 -41 20.5 -65.5t54.5 -24.5q55 0 92 59.5t37 137.5q0 45 -23.5 66.5t-74.5 25.5l2 16q68 2 110 54.5t42 123.5q0 35 -14.5 52.5t-43.5 17.5q-39 0 -65.5 -28.5t-26.5 -71.5 q0 -20 8.5 -32.5t24.5 -14.5q4 0 8 1l12 3l2 -2q-14 -18 -34.5 -27.5t-51.5 -9.5q-37 0 -59 20.5t-22 53.5q0 61 58 99t146 38q86 0 141.5 -36t55.5 -93q0 -66 -55.5 -107t-145.5 -49q68 -8 110 -44t42 -87q0 -90 -77 -142.5t-198 -52.5q-80 0 -136 36t-56 98z" />
<glyph unicode="&#xbf;" horiz-adv-x="1011" d="M102 35q0 197 154 325.5t416 159.5l43 174h45l-94 -377q-178 -18 -279.5 -112t-101.5 -248q0 -113 67.5 -178.5t182.5 -65.5q113 0 183 68.5t70 179.5q0 51 -26.5 82t-71.5 31q-23 0 -41 -5.5t-33 -15.5h-4q35 66 83 97.5t110 31.5q74 0 123 -51t49 -127 q0 -147 -127 -238.5t-318 -91.5q-188 0 -309 101.5t-121 259.5zM645 987q0 68 46 114t114 46q66 0 113 -47t47 -113q0 -68 -46.5 -115t-113.5 -47q-68 0 -114 46.5t-46 115.5z" />
<glyph unicode="&#xc0;" horiz-adv-x="1460" d="M0 0v4q68 45 107.5 85t113.5 144l873 1221h10l246 -1221q23 -111 43 -150.5t65 -78.5v-4h-485v4q78 37 107.5 69.5t29.5 82.5q0 12 -1 26.5t-5 32.5l-45 246h-600l-140 -195q-33 -43 -49 -81.5t-16 -73.5q0 -33 17.5 -59.5t52.5 -47.5v-4h-324zM498 516h553l-113 619z M932 1884h241q-8 -96 5.5 -183t47.5 -173h-8q-109 78 -178 165t-108 191z" />
<glyph unicode="&#xc1;" horiz-adv-x="1460" d="M0 0v4q68 45 107.5 85t113.5 144l873 1221h10l246 -1221q23 -111 43 -150.5t65 -78.5v-4h-485v4q78 37 107.5 69.5t29.5 82.5q0 12 -1 26.5t-5 32.5l-45 246h-600l-140 -195q-33 -43 -49 -81.5t-16 -73.5q0 -33 17.5 -59.5t52.5 -47.5v-4h-324zM498 516h553l-113 619z M964 1528q70 78 118 160.5t85 195.5h266q-84 -102 -196.5 -190t-261.5 -166h-11z" />
<glyph unicode="&#xc2;" horiz-adv-x="1460" d="M0 0v4q68 45 107.5 85t113.5 144l873 1221h10l246 -1221q23 -111 43 -150.5t65 -78.5v-4h-485v4q78 37 107.5 69.5t29.5 82.5q0 12 -1 26.5t-5 32.5l-45 246h-600l-140 -195q-33 -43 -49 -81.5t-16 -73.5q0 -33 17.5 -59.5t52.5 -47.5v-4h-324zM498 516h553l-113 619z M762 1513q139 104 257 215t182 197h8q16 -92 71 -204t129 -208h-18q-76 37 -140.5 81t-105.5 89q-59 -37 -151 -79.5t-213 -90.5h-19z" />
<glyph unicode="&#xc3;" horiz-adv-x="1460" d="M0 0v4q68 45 107.5 85t113.5 144l873 1221h10l246 -1221q23 -111 43 -150.5t65 -78.5v-4h-485v4q78 37 107.5 69.5t29.5 82.5q0 12 -1 26.5t-5 32.5l-45 246h-600l-140 -195q-33 -43 -49 -81.5t-16 -73.5q0 -33 17.5 -59.5t52.5 -47.5v-4h-324zM498 516h553l-113 619z M738 1561q57 141 136 221t160 80q31 0 63 -13.5t85 -54.5q53 -39 83 -51t58 -12q55 0 107.5 35.5t101.5 105.5h17q-57 -141 -136.5 -221t-160.5 -80q-31 0 -63 13t-85 54q-53 39 -83 51.5t-58 12.5q-55 0 -108.5 -36t-98.5 -105h-18z" />
<glyph unicode="&#xc4;" horiz-adv-x="1460" d="M0 0v4q68 45 107.5 85t113.5 144l873 1221h10l246 -1221q23 -111 43 -150.5t65 -78.5v-4h-485v4q78 37 107.5 69.5t29.5 82.5q0 12 -1 26.5t-5 32.5l-45 246h-600l-140 -195q-33 -43 -49 -81.5t-16 -73.5q0 -33 17.5 -59.5t52.5 -47.5v-4h-324zM498 516h553l-113 619z M801 1690q0 63 43 107t107 44q59 0 98 -38t39 -95q0 -61 -44 -104t-110 -43q-57 0 -95 37t-38 92zM1190 1690q0 63 43 107t107 44q59 0 98 -38t39 -95q0 -61 -44 -104t-110 -43q-57 0 -95 37t-38 92z" />
<glyph unicode="&#xc5;" horiz-adv-x="1460" d="M0 0v4q68 45 107.5 85t113.5 144l873 1221h10l246 -1221q23 -111 43 -150.5t65 -78.5v-4h-485v4q78 37 107.5 69.5t29.5 82.5q0 12 -1 26.5t-5 32.5l-45 246h-600l-140 -195q-33 -43 -49 -81.5t-16 -73.5q0 -33 17.5 -59.5t52.5 -47.5v-4h-324zM498 516h553l-113 619z M944 1733q0 82 66.5 145.5t153.5 63.5q82 0 136 -55.5t54 -139.5q0 -82 -66.5 -145.5t-152.5 -63.5q-82 0 -136.5 55.5t-54.5 139.5zM1000 1733q0 -61 40 -101.5t99 -40.5q63 0 111.5 47.5t48.5 108.5t-40 101t-100 40q-63 0 -111 -47t-48 -108z" />
<glyph unicode="&#xc6;" horiz-adv-x="2152" d="M0 0v4q53 33 97 71t155 156l936 1024q23 23 35 44.5t12 39.5q0 27 -21.5 49.5t-64.5 41.5v4h1051q55 0 81.5 4t45.5 12l-19 -369h-4q-49 172 -132 235.5t-241 63.5h-321l-154 -622h254q129 0 194.5 44t149.5 181h4l-121 -479h-4q-12 123 -52 162t-183 39h-254l-164 -652 h342q156 0 276.5 71t284.5 282h4l-159 -406h-1115v4q72 33 112 87t67 167l73 293h-540l-299 -328q-39 -43 -56.5 -73.5t-17.5 -55.5q0 -29 18.5 -50t57.5 -40v-4h-328zM674 606h506l190 764z" />
<glyph unicode="&#xc7;" horiz-adv-x="1335" d="M236 557q0 176 61 337t174 288q119 131 275.5 201.5t326.5 70.5q63 0 122.5 -11t143.5 -42q45 -16 65.5 -21.5t37.5 -5.5q27 0 55.5 13.5t69.5 46.5l-80 -447h-4q-49 213 -147.5 316.5t-250.5 103.5q-244 0 -415.5 -243.5t-171.5 -577.5q0 -225 109.5 -357.5 t295.5 -132.5q162 0 283 73t229 234h12q-92 -205 -251.5 -314t-366.5 -109q-258 0 -415.5 159.5t-157.5 417.5zM411 -330l21 19q20 -39 62 -62.5t89 -23.5q68 0 109 37.5t41 101.5q0 49 -34 71.5t-118 26.5l140 170h39l-111 -133q111 6 180.5 -34t69.5 -111 q0 -84 -77 -136.5t-194 -52.5q-80 0 -139 35t-78 92z" />
<glyph unicode="&#xc8;" horiz-adv-x="1323" d="M86 0v4q72 31 111 84t69 170l230 918q10 37 14 67.5t4 56.5q0 45 -18.5 76t-57.5 54v4h934q53 0 81 4t46 12l-18 -369h-4q-49 170 -133 234.5t-242 64.5h-320l-155 -622h254q129 0 195.5 44t148.5 181h4l-119 -479h-4q-14 123 -54 162t-184 39h-254l-161 -652h340 q156 0 273.5 68.5t287.5 284.5h4l-158 -406h-1114zM850 1884h241q-8 -96 5.5 -183t47.5 -173h-8q-109 78 -178 165t-108 191z" />
<glyph unicode="&#xc9;" horiz-adv-x="1323" d="M86 0v4q72 31 111 84t69 170l230 918q10 37 14 67.5t4 56.5q0 45 -18.5 76t-57.5 54v4h934q53 0 81 4t46 12l-18 -369h-4q-49 170 -133 234.5t-242 64.5h-320l-155 -622h254q129 0 195.5 44t148.5 181h4l-119 -479h-4q-14 123 -54 162t-184 39h-254l-161 -652h340 q156 0 273.5 68.5t287.5 284.5h4l-158 -406h-1114zM882 1528q70 78 118 160.5t85 195.5h266q-84 -102 -196.5 -190t-261.5 -166h-11z" />
<glyph unicode="&#xca;" horiz-adv-x="1323" d="M86 0v4q72 31 111 84t69 170l230 918q10 37 14 67.5t4 56.5q0 45 -18.5 76t-57.5 54v4h934q53 0 81 4t46 12l-18 -369h-4q-49 170 -133 234.5t-242 64.5h-320l-155 -622h254q129 0 195.5 44t148.5 181h4l-119 -479h-4q-14 123 -54 162t-184 39h-254l-161 -652h340 q156 0 273.5 68.5t287.5 284.5h4l-158 -406h-1114zM680 1513q139 104 257 215t182 197h8q16 -92 71 -204t129 -208h-18q-76 37 -140.5 81t-105.5 89q-59 -37 -151 -79.5t-213 -90.5h-19z" />
<glyph unicode="&#xcb;" horiz-adv-x="1323" d="M86 0v4q72 31 111 84t69 170l230 918q10 37 14 67.5t4 56.5q0 45 -18.5 76t-57.5 54v4h934q53 0 81 4t46 12l-18 -369h-4q-49 170 -133 234.5t-242 64.5h-320l-155 -622h254q129 0 195.5 44t148.5 181h4l-119 -479h-4q-14 123 -54 162t-184 39h-254l-161 -652h340 q156 0 273.5 68.5t287.5 284.5h4l-158 -406h-1114zM721 1690q0 63 43 107t107 44q59 0 98 -38t39 -95q0 -61 -44 -104t-110 -43q-57 0 -95 37t-38 92zM1110 1690q0 63 43 107t107 44q59 0 98 -38t39 -95q0 -61 -44 -104t-110 -43q-57 0 -95 37t-38 92z" />
<glyph unicode="&#xcc;" horiz-adv-x="641" d="M86 0v4q72 31 111 84t69 170l230 918q10 37 14 67.5t4 56.5q0 45 -18.5 76t-57.5 54v4h475v-4q-72 -31 -110.5 -84.5t-69.5 -169.5l-229 -918q-10 -45 -15.5 -73.5t-5.5 -51.5q0 -45 18.5 -75.5t59.5 -53.5v-4h-475zM535 1884h241q-8 -96 5.5 -183t47.5 -173h-8 q-109 78 -178 165t-108 191z" />
<glyph unicode="&#xcd;" horiz-adv-x="641" d="M86 0v4q72 31 111 84t69 170l230 918q10 37 14 67.5t4 56.5q0 45 -18.5 76t-57.5 54v4h475v-4q-72 -31 -110.5 -84.5t-69.5 -169.5l-229 -918q-10 -45 -15.5 -73.5t-5.5 -51.5q0 -45 18.5 -75.5t59.5 -53.5v-4h-475zM567 1528q70 78 118 160.5t85 195.5h266 q-84 -102 -196.5 -190t-261.5 -166h-11z" />
<glyph unicode="&#xce;" horiz-adv-x="641" d="M86 0v4q72 31 111 84t69 170l230 918q10 37 14 67.5t4 56.5q0 45 -18.5 76t-57.5 54v4h475v-4q-72 -31 -110.5 -84.5t-69.5 -169.5l-229 -918q-10 -45 -15.5 -73.5t-5.5 -51.5q0 -45 18.5 -75.5t59.5 -53.5v-4h-475zM366 1513q139 104 257 215t182 197h8q16 -92 71 -204 t129 -208h-18q-76 37 -140.5 81t-105.5 89q-59 -37 -151 -79.5t-213 -90.5h-19z" />
<glyph unicode="&#xcf;" horiz-adv-x="641" d="M86 0v4q72 31 111 84t69 170l230 918q10 37 14 67.5t4 56.5q0 45 -18.5 76t-57.5 54v4h475v-4q-72 -31 -110.5 -84.5t-69.5 -169.5l-229 -918q-10 -45 -15.5 -73.5t-5.5 -51.5q0 -45 18.5 -75.5t59.5 -53.5v-4h-475zM405 1690q0 63 43 107t107 44q59 0 98 -38t39 -95 q0 -61 -44 -104t-110 -43q-57 0 -95 37t-38 92zM794 1690q0 63 43 107t107 44q59 0 98 -38t39 -95q0 -61 -44 -104t-110 -43q-57 0 -95 37t-38 92z" />
<glyph unicode="&#xd0;" horiz-adv-x="1521" d="M86 0v4q72 31 111 84t69 170l113 447h-111l13 57h112l103 414q10 37 14 67.5t4 56.5q0 45 -18.5 76t-57.5 54v4h547q303 0 480 -148.5t177 -402.5q0 -397 -266 -640t-692 -243h-598zM453 53h231q309 0 504.5 247t195.5 615q0 223 -107.5 344t-309.5 121h-183l-153 -618 h295l-13 -57h-297z" />
<glyph unicode="&#xd1;" horiz-adv-x="1517" d="M49 0v4q86 37 142.5 109.5t84.5 183.5l220 887q8 35 12 60.5t4 45.5q0 49 -19.5 81t-64.5 59v4h330l585 -1084l197 780q8 41 12 70t4 53q0 63 -25.5 108.5t-76.5 68.5v4h375v-4q-86 -37 -142.5 -109t-84.5 -184l-287 -1149h-31l-709 1267l-237 -952q-8 -39 -12 -69.5 t-4 -55.5q0 -66 24.5 -108.5t75.5 -65.5v-4h-373zM793 1561q57 141 136 221t160 80q31 0 63 -13.5t85 -54.5q53 -39 83 -51t58 -12q55 0 107.5 35.5t101.5 105.5h17q-57 -141 -136.5 -221t-160.5 -80q-31 0 -63 13t-85 54q-53 39 -83 51.5t-58 12.5q-55 0 -108.5 -36 t-98.5 -105h-18z" />
<glyph unicode="&#xd2;" horiz-adv-x="1533" d="M238 567q0 174 61 334t176 285q117 129 272.5 198.5t325.5 69.5q260 0 420 -163t160 -425q0 -174 -61.5 -333.5t-176.5 -284.5q-119 -129 -274.5 -198.5t-325.5 -69.5q-260 0 -418.5 162.5t-158.5 424.5zM489 455q0 -193 88.5 -311.5t237.5 -118.5q147 0 273 114.5 t208 319.5q49 123 76 260t27 260q0 195 -87 312.5t-239 117.5q-145 0 -272 -115.5t-207 -318.5q-49 -125 -77 -262.5t-28 -257.5zM981 1884h241q-8 -96 5.5 -183t47.5 -173h-8q-109 78 -178 165t-108 191z" />
<glyph unicode="&#xd3;" horiz-adv-x="1533" d="M238 567q0 174 61 334t176 285q117 129 272.5 198.5t325.5 69.5q260 0 420 -163t160 -425q0 -174 -61.5 -333.5t-176.5 -284.5q-119 -129 -274.5 -198.5t-325.5 -69.5q-260 0 -418.5 162.5t-158.5 424.5zM489 455q0 -193 88.5 -311.5t237.5 -118.5q147 0 273 114.5 t208 319.5q49 123 76 260t27 260q0 195 -87 312.5t-239 117.5q-145 0 -272 -115.5t-207 -318.5q-49 -125 -77 -262.5t-28 -257.5zM1013 1528q70 78 118 160.5t85 195.5h266q-84 -102 -196.5 -190t-261.5 -166h-11z" />
<glyph unicode="&#xd4;" horiz-adv-x="1533" d="M238 567q0 174 61 334t176 285q117 129 272.5 198.5t325.5 69.5q260 0 420 -163t160 -425q0 -174 -61.5 -333.5t-176.5 -284.5q-119 -129 -274.5 -198.5t-325.5 -69.5q-260 0 -418.5 162.5t-158.5 424.5zM489 455q0 -193 88.5 -311.5t237.5 -118.5q147 0 273 114.5 t208 319.5q49 123 76 260t27 260q0 195 -87 312.5t-239 117.5q-145 0 -272 -115.5t-207 -318.5q-49 -125 -77 -262.5t-28 -257.5zM821 1513q139 104 257 215t182 197h8q16 -92 71 -204t129 -208h-18q-76 37 -140.5 81t-105.5 89q-59 -37 -151 -79.5t-213 -90.5h-19z" />
<glyph unicode="&#xd5;" horiz-adv-x="1533" d="M238 567q0 174 61 334t176 285q117 129 272.5 198.5t325.5 69.5q260 0 420 -163t160 -425q0 -174 -61.5 -333.5t-176.5 -284.5q-119 -129 -274.5 -198.5t-325.5 -69.5q-260 0 -418.5 162.5t-158.5 424.5zM489 455q0 -193 88.5 -311.5t237.5 -118.5q147 0 273 114.5 t208 319.5q49 123 76 260t27 260q0 195 -87 312.5t-239 117.5q-145 0 -272 -115.5t-207 -318.5q-49 -125 -77 -262.5t-28 -257.5zM797 1561q57 141 136 221t160 80q31 0 63 -13.5t85 -54.5q53 -39 83 -51t58 -12q55 0 107.5 35.5t101.5 105.5h17q-57 -141 -136.5 -221 t-160.5 -80q-31 0 -63 13t-85 54q-53 39 -83 51.5t-58 12.5q-55 0 -108.5 -36t-98.5 -105h-18z" />
<glyph unicode="&#xd6;" horiz-adv-x="1533" d="M238 567q0 174 61 334t176 285q117 129 272.5 198.5t325.5 69.5q260 0 420 -163t160 -425q0 -174 -61.5 -333.5t-176.5 -284.5q-119 -129 -274.5 -198.5t-325.5 -69.5q-260 0 -418.5 162.5t-158.5 424.5zM489 455q0 -193 88.5 -311.5t237.5 -118.5q147 0 273 114.5 t208 319.5q49 123 76 260t27 260q0 195 -87 312.5t-239 117.5q-145 0 -272 -115.5t-207 -318.5q-49 -125 -77 -262.5t-28 -257.5zM856 1690q0 63 43 107t107 44q59 0 98 -38t39 -95q0 -61 -44 -104t-110 -43q-57 0 -95 37t-38 92zM1245 1690q0 63 43 107t107 44q59 0 98 -38 t39 -95q0 -61 -44 -104t-110 -43q-57 0 -95 37t-38 92z" />
<glyph unicode="&#xd7;" horiz-adv-x="815" d="M197 393l340 275l-205 274l45 33l201 -275l340 275l30 -41l-340 -275l205 -274l-43 -33l-201 275l-340 -275z" />
<glyph unicode="&#xd8;" horiz-adv-x="1540" d="M150 6l206 189q-55 76 -84.5 170t-29.5 202q0 174 61.5 334t175.5 285q117 129 272.5 198.5t325.5 69.5q141 0 256 -50t193 -144l200 182l33 -37l-203 -184q49 -74 75 -163.5t26 -191.5q0 -174 -61.5 -333.5t-176.5 -284.5q-119 -129 -274.5 -198.5t-325.5 -69.5 q-133 0 -243.5 46t-188.5 132l-205 -187zM494 455q0 -31 3 -62t7 -63l882 803q-33 133 -112.5 204.5t-196.5 71.5q-145 0 -272 -115.5t-207 -318.5q-49 -125 -76.5 -262.5t-27.5 -257.5zM518 276q33 -121 112 -186t189 -65q147 0 273.5 114.5t207.5 319.5q49 123 76 260 t27 260q0 25 -2 49t-4 47z" />
<glyph unicode="&#xd9;" horiz-adv-x="1447" d="M289 410q0 39 5 77.5t15 77.5l154 611q10 37 14 67.5t4 56.5q0 45 -18.5 76t-56.5 54v4h475v-4q-72 -31 -111 -84.5t-70 -169.5l-153 -609q-10 -41 -15.5 -81t-5.5 -78q0 -152 86 -238t238 -86q201 0 322.5 117.5t183.5 369.5l145 584q10 37 14.5 66.5t4.5 56.5 q0 55 -22.5 93t-67.5 59v4h335v-4q-80 -33 -125.5 -96.5t-72.5 -172.5l-150 -598q-74 -299 -226.5 -441t-395.5 -142q-233 0 -369.5 115.5t-136.5 314.5zM961 1884h241q-8 -96 5.5 -183t47.5 -173h-8q-109 78 -178 165t-108 191z" />
<glyph unicode="&#xda;" horiz-adv-x="1447" d="M289 410q0 39 5 77.5t15 77.5l154 611q10 37 14 67.5t4 56.5q0 45 -18.5 76t-56.5 54v4h475v-4q-72 -31 -111 -84.5t-70 -169.5l-153 -609q-10 -41 -15.5 -81t-5.5 -78q0 -152 86 -238t238 -86q201 0 322.5 117.5t183.5 369.5l145 584q10 37 14.5 66.5t4.5 56.5 q0 55 -22.5 93t-67.5 59v4h335v-4q-80 -33 -125.5 -96.5t-72.5 -172.5l-150 -598q-74 -299 -226.5 -441t-395.5 -142q-233 0 -369.5 115.5t-136.5 314.5zM1034 1528q70 78 118 160.5t85 195.5h266q-84 -102 -196.5 -190t-261.5 -166h-11z" />
<glyph unicode="&#xdb;" horiz-adv-x="1447" d="M289 410q0 39 5 77.5t15 77.5l154 611q10 37 14 67.5t4 56.5q0 45 -18.5 76t-56.5 54v4h475v-4q-72 -31 -111 -84.5t-70 -169.5l-153 -609q-10 -41 -15.5 -81t-5.5 -78q0 -152 86 -238t238 -86q201 0 322.5 117.5t183.5 369.5l145 584q10 37 14.5 66.5t4.5 56.5 q0 55 -22.5 93t-67.5 59v4h335v-4q-80 -33 -125.5 -96.5t-72.5 -172.5l-150 -598q-74 -299 -226.5 -441t-395.5 -142q-233 0 -369.5 115.5t-136.5 314.5zM833 1513q139 104 257 215t182 197h8q16 -92 71 -204t129 -208h-18q-76 37 -140.5 81t-105.5 89q-59 -37 -151 -79.5 t-213 -90.5h-19z" />
<glyph unicode="&#xdc;" horiz-adv-x="1447" d="M289 410q0 39 5 77.5t15 77.5l154 611q10 37 14 67.5t4 56.5q0 45 -18.5 76t-56.5 54v4h475v-4q-72 -31 -111 -84.5t-70 -169.5l-153 -609q-10 -41 -15.5 -81t-5.5 -78q0 -152 86 -238t238 -86q201 0 322.5 117.5t183.5 369.5l145 584q10 37 14.5 66.5t4.5 56.5 q0 55 -22.5 93t-67.5 59v4h335v-4q-80 -33 -125.5 -96.5t-72.5 -172.5l-150 -598q-74 -299 -226.5 -441t-395.5 -142q-233 0 -369.5 115.5t-136.5 314.5zM872 1690q0 63 43 107t107 44q59 0 98 -38t39 -95q0 -61 -44 -104t-110 -43q-57 0 -95 37t-38 92zM1261 1690 q0 63 43 107t107 44q59 0 98 -38t39 -95q0 -61 -44 -104t-110 -43q-57 0 -95 37t-38 92z" />
<glyph unicode="&#xdd;" horiz-adv-x="1331" d="M354 1430v4h443v-4q-49 -25 -75 -59t-26 -75q0 -14 3 -29.5t10 -29.5l202 -573l478 559q25 29 37 56.5t12 51.5q0 29 -16.5 54.5t-49.5 44.5v4h322v-4q-59 -37 -104.5 -77t-133.5 -143l-524 -610l-88 -354q-10 -37 -14.5 -63.5t-4.5 -49.5q0 -45 19.5 -75.5t62.5 -53.5 v-4h-471v4q78 35 118 87t64 155l91 354l-226 610q-31 88 -57.5 132t-71.5 88zM944 1528q70 78 118 160.5t85 195.5h266q-84 -102 -196.5 -190t-261.5 -166h-11z" />
<glyph unicode="&#xde;" horiz-adv-x="1308" d="M86 0v4q74 33 114 87t66 167l230 918q10 45 15 73.5t5 50.5q0 45 -18.5 76t-59.5 54v4h473v-4q-70 -31 -108.5 -84.5t-71.5 -169.5l-8 -33h274q219 0 338 -85t119 -245q0 -233 -182 -368.5t-479 -135.5h-277l-14 -65q-10 -31 -14.5 -55.5t-4.5 -45.5q0 -49 27 -80.5 t88 -58.5v-4h-512zM530 362h218q207 0 332.5 126t125.5 335q0 133 -71.5 200t-212.5 67h-211z" />
<glyph unicode="&#xdf;" horiz-adv-x="1261" d="M-82 -469q80 37 140.5 165t134.5 443l186 819h-135l6 23l141 29l33 114q63 203 203.5 311.5t339.5 108.5q156 0 254 -68.5t98 -181.5q0 -80 -57 -147.5t-207 -145.5q-84 -43 -116 -81.5t-32 -92.5q0 -49 38 -95t132 -116q145 -106 188.5 -168.5t43.5 -140.5 q0 -143 -115 -235t-289 -92q-152 0 -256 66.5t-104 164.5q0 61 39 98t100 37q35 0 63.5 -10t49.5 -31q-41 -2 -63.5 -32.5t-22.5 -86.5q0 -76 54 -124t140 -48q100 0 162.5 53.5t62.5 141.5q0 51 -36.5 97t-141.5 124q-106 72 -151 135.5t-45 141.5q0 82 50 150.5t191 162.5 q90 59 129 126.5t39 162.5q0 94 -52 148t-142 54q-121 0 -197 -100t-131 -330l-254 -1075q-57 -242 -170 -356.5t-301 -122.5v4z" />
<glyph unicode="&#xe0;" horiz-adv-x="1191" d="M168 340q0 270 170 476t403 206q106 0 179 -56.5t98 -154.5q43 74 112.5 128t157.5 83q-27 -72 -54.5 -171t-53.5 -210l-113 -453q-20 -86 39 -112q23 -8 49 -8q45 0 107 32l2 -4q-57 -59 -119 -87.5t-129 -28.5q-86 0 -134 47t-46 131q0 20 5 44.5t13 51.5 q-74 -137 -168 -205.5t-209 -68.5q-143 0 -226 97t-83 263zM403 330q0 -119 45.5 -181.5t129.5 -62.5q100 0 190 99.5t131 254.5l47 189q10 35 14.5 66.5t4.5 58.5q0 92 -48.5 145t-128.5 53q-154 0 -269.5 -196.5t-115.5 -425.5zM704 1534h244q-10 -100 3 -196.5t50 -198.5 h-10q-109 90 -179.5 187t-107.5 208z" />
<glyph unicode="&#xe1;" horiz-adv-x="1191" d="M168 340q0 270 170 476t403 206q106 0 179 -56.5t98 -154.5q43 74 112.5 128t157.5 83q-27 -72 -54.5 -171t-53.5 -210l-113 -453q-20 -86 39 -112q23 -8 49 -8q45 0 107 32l2 -4q-57 -59 -119 -87.5t-129 -28.5q-86 0 -134 47t-46 131q0 20 5 44.5t13 51.5 q-74 -137 -168 -205.5t-209 -68.5q-143 0 -226 97t-83 263zM403 330q0 -119 45.5 -181.5t129.5 -62.5q100 0 190 99.5t131 254.5l47 189q10 35 14.5 66.5t4.5 58.5q0 92 -48.5 145t-128.5 53q-154 0 -269.5 -196.5t-115.5 -425.5zM723 1139q72 90 119 182t84 213h268 q-86 -111 -199.5 -208t-263.5 -187h-8z" />
<glyph unicode="&#xe2;" horiz-adv-x="1191" d="M168 340q0 270 170 476t403 206q106 0 179 -56.5t98 -154.5q43 74 112.5 128t157.5 83q-27 -72 -54.5 -171t-53.5 -210l-113 -453q-20 -86 39 -112q23 -8 49 -8q45 0 107 32l2 -4q-57 -59 -119 -87.5t-129 -28.5q-86 0 -134 47t-46 131q0 20 5 44.5t13 51.5 q-74 -137 -168 -205.5t-209 -68.5q-143 0 -226 97t-83 263zM403 330q0 -119 45.5 -181.5t129.5 -62.5q100 0 190 99.5t131 254.5l47 189q10 35 14.5 66.5t4.5 58.5q0 92 -48.5 145t-128.5 53q-154 0 -269.5 -196.5t-115.5 -425.5zM539 1120q135 106 253.5 225t184.5 214h8 q16 -100 71.5 -220.5t129.5 -218.5h-19q-66 31 -128 81t-115 110q-74 -51 -174.5 -103.5t-192.5 -87.5h-18z" />
<glyph unicode="&#xe3;" horiz-adv-x="1191" d="M168 340q0 270 170 476t403 206q106 0 179 -56.5t98 -154.5q43 74 112.5 128t157.5 83q-27 -72 -54.5 -171t-53.5 -210l-113 -453q-20 -86 39 -112q23 -8 49 -8q45 0 107 32l2 -4q-57 -59 -119 -87.5t-129 -28.5q-86 0 -134 47t-46 131q0 20 5 44.5t13 51.5 q-74 -137 -168 -205.5t-209 -68.5q-143 0 -226 97t-83 263zM403 330q0 -119 45.5 -181.5t129.5 -62.5q100 0 190 99.5t131 254.5l47 189q10 35 14.5 66.5t4.5 58.5q0 92 -48.5 145t-128.5 53q-154 0 -269.5 -196.5t-115.5 -425.5zM489 1171q55 141 135 221.5t162 80.5 q31 0 62.5 -13.5t85.5 -54.5q53 -39 82.5 -51.5t58.5 -12.5q55 0 107.5 36t101.5 106h16q-59 -141 -137 -221t-160 -80q-31 0 -62.5 13t-84.5 54q-53 39 -83 51.5t-58 12.5q-55 0 -108.5 -36t-100.5 -106h-17z" />
<glyph unicode="&#xe4;" horiz-adv-x="1191" d="M168 340q0 270 170 476t403 206q106 0 179 -56.5t98 -154.5q43 74 112.5 128t157.5 83q-27 -72 -54.5 -171t-53.5 -210l-113 -453q-20 -86 39 -112q23 -8 49 -8q45 0 107 32l2 -4q-57 -59 -119 -87.5t-129 -28.5q-86 0 -134 47t-46 131q0 20 5 44.5t13 51.5 q-74 -137 -168 -205.5t-209 -68.5q-143 0 -226 97t-83 263zM403 330q0 -119 45.5 -181.5t129.5 -62.5q100 0 190 99.5t131 254.5l47 189q10 35 14.5 66.5t4.5 58.5q0 92 -48.5 145t-128.5 53q-154 0 -269.5 -196.5t-115.5 -425.5zM574 1300q0 63 43 107.5t106 44.5 q59 0 98.5 -38t39.5 -95q0 -61 -44 -104.5t-110 -43.5q-57 0 -95 37t-38 92zM963 1300q0 63 43 107.5t106 44.5q59 0 98.5 -38t39.5 -95q0 -61 -44 -104.5t-110 -43.5q-57 0 -95 37t-38 92z" />
<glyph unicode="&#xe5;" horiz-adv-x="1191" d="M168 340q0 270 170 476t403 206q106 0 179 -56.5t98 -154.5q43 74 112.5 128t157.5 83q-27 -72 -54.5 -171t-53.5 -210l-113 -453q-20 -86 39 -112q23 -8 49 -8q45 0 107 32l2 -4q-57 -59 -119 -87.5t-129 -28.5q-86 0 -134 47t-46 131q0 20 5 44.5t13 51.5 q-74 -137 -168 -205.5t-209 -68.5q-143 0 -226 97t-83 263zM403 330q0 -119 45.5 -181.5t129.5 -62.5q100 0 190 99.5t131 254.5l47 189q10 35 14.5 66.5t4.5 58.5q0 92 -48.5 145t-128.5 53q-154 0 -269.5 -196.5t-115.5 -425.5zM715 1343q0 82 66.5 145.5t152.5 63.5 q82 0 135.5 -55t53.5 -139q0 -82 -66.5 -145.5t-152.5 -63.5q-82 0 -135.5 55.5t-53.5 138.5zM770 1343q0 -61 39.5 -101t98.5 -40q63 0 111 47t48 109q0 61 -38.5 101t-98.5 40q-63 0 -111.5 -47t-48.5 -109z" />
<glyph unicode="&#xe6;" horiz-adv-x="1609" d="M168 340q0 270 170 476t403 206q98 0 168 -48t101 -136q88 90 198.5 137t231.5 47q131 0 214 -61.5t83 -159.5q0 -154 -172 -238t-502 -92q-2 -25 -4 -49.5t-2 -46.5q0 -145 67.5 -221t194.5 -76q92 0 173 44t155 136h8q-61 -131 -175 -204.5t-259 -73.5 q-135 0 -233.5 64.5t-139.5 178.5q-72 -119 -166 -181t-201 -62q-145 0 -229 97t-84 263zM403 330q0 -119 45.5 -181.5t131.5 -62.5q68 0 136 48t120 130q-8 27 -11.5 55.5t-3.5 63.5q0 111 39 218.5t113 195.5q-14 72 -62.5 113.5t-117.5 41.5q-156 0 -273 -195.5 t-117 -426.5zM1067 496q229 20 352 114t123 252q0 55 -26.5 88t-73.5 33q-123 0 -232.5 -144.5t-142.5 -342.5z" />
<glyph unicode="&#xe7;" horiz-adv-x="944" d="M174 385q0 254 179 445.5t429 191.5q127 0 207 -61.5t80 -159.5q0 -82 -57.5 -136.5t-141.5 -54.5q-57 0 -96 29t-45 76q12 -8 29.5 -13.5t29.5 -5.5q57 0 92 40t35 108q0 66 -33.5 102.5t-95.5 36.5q-143 0 -259.5 -189.5t-116.5 -406.5q0 -152 65.5 -231.5t186.5 -79.5 q90 0 164.5 44t146.5 138h10q-61 -133 -168.5 -205.5t-247.5 -72.5q-174 0 -283.5 111.5t-109.5 293.5zM225 -330l21 19q20 -39 62 -62.5t89 -23.5q68 0 109 37.5t41 101.5q0 49 -34 71.5t-118 26.5l140 170h39l-111 -133q111 6 180.5 -34t69.5 -111q0 -84 -77 -136.5 t-194 -52.5q-80 0 -139 35t-78 92z" />
<glyph unicode="&#xe8;" horiz-adv-x="962" d="M174 383q0 256 182.5 447.5t436.5 191.5q131 0 214 -61.5t83 -159.5q0 -154 -172.5 -238t-501.5 -92q-2 -25 -4 -49.5t-2 -46.5q0 -145 67.5 -221t194.5 -76q92 0 173 44t154 136h9q-61 -131 -175.5 -204.5t-259.5 -73.5q-180 0 -289.5 110.5t-109.5 292.5zM420 496 q229 20 352 114t123 252q0 55 -26.5 88t-73.5 33q-123 0 -232.5 -144.5t-142.5 -342.5zM614 1534h244q-10 -100 3 -196.5t50 -198.5h-10q-109 90 -179.5 187t-107.5 208z" />
<glyph unicode="&#xe9;" horiz-adv-x="962" d="M174 383q0 256 182.5 447.5t436.5 191.5q131 0 214 -61.5t83 -159.5q0 -154 -172.5 -238t-501.5 -92q-2 -25 -4 -49.5t-2 -46.5q0 -145 67.5 -221t194.5 -76q92 0 173 44t154 136h9q-61 -131 -175.5 -204.5t-259.5 -73.5q-180 0 -289.5 110.5t-109.5 292.5zM420 496 q229 20 352 114t123 252q0 55 -26.5 88t-73.5 33q-123 0 -232.5 -144.5t-142.5 -342.5zM661 1139q72 90 119 182t84 213h268q-86 -111 -199.5 -208t-263.5 -187h-8z" />
<glyph unicode="&#xea;" horiz-adv-x="962" d="M174 383q0 256 182.5 447.5t436.5 191.5q131 0 214 -61.5t83 -159.5q0 -154 -172.5 -238t-501.5 -92q-2 -25 -4 -49.5t-2 -46.5q0 -145 67.5 -221t194.5 -76q92 0 173 44t154 136h9q-61 -131 -175.5 -204.5t-259.5 -73.5q-180 0 -289.5 110.5t-109.5 292.5zM420 496 q229 20 352 114t123 252q0 55 -26.5 88t-73.5 33q-123 0 -232.5 -144.5t-142.5 -342.5zM478 1120q135 106 253.5 225t184.5 214h8q16 -100 71.5 -220.5t129.5 -218.5h-19q-66 31 -128 81t-115 110q-74 -51 -174.5 -103.5t-192.5 -87.5h-18z" />
<glyph unicode="&#xeb;" horiz-adv-x="962" d="M174 383q0 256 182.5 447.5t436.5 191.5q131 0 214 -61.5t83 -159.5q0 -154 -172.5 -238t-501.5 -92q-2 -25 -4 -49.5t-2 -46.5q0 -145 67.5 -221t194.5 -76q92 0 173 44t154 136h9q-61 -131 -175.5 -204.5t-259.5 -73.5q-180 0 -289.5 110.5t-109.5 292.5zM420 496 q229 20 352 114t123 252q0 55 -26.5 88t-73.5 33q-123 0 -232.5 -144.5t-142.5 -342.5zM510 1300q0 63 43 107.5t106 44.5q59 0 98.5 -38t39.5 -95q0 -61 -44 -104.5t-110 -43.5q-57 0 -95 37t-38 92zM899 1300q0 63 43 107.5t106 44.5q59 0 98.5 -38t39.5 -95 q0 -61 -44 -104.5t-110 -43.5q-57 0 -95 37t-38 92z" />
<glyph unicode="&#xec;" horiz-adv-x="565" d="M199 145q0 18 2 35t6 31l145 580q6 23 9.5 40t3.5 31q0 41 -19.5 71t-71.5 64v4h363l-203 -813q-4 -10 -5 -20t-1 -18q0 -37 23.5 -58.5t64.5 -21.5q25 0 52.5 7t60.5 23v-4q-57 -59 -118.5 -87.5t-129.5 -28.5q-84 0 -133 45t-49 120zM387 1534h244q-10 -100 3 -196.5 t50 -198.5h-10q-109 90 -179.5 187t-107.5 208z" />
<glyph unicode="&#xed;" horiz-adv-x="565" d="M199 145q0 18 2 35t6 31l145 580q6 23 9.5 40t3.5 31q0 41 -19.5 71t-71.5 64v4h363l-203 -813q-4 -10 -5 -20t-1 -18q0 -37 23.5 -58.5t64.5 -21.5q25 0 52.5 7t60.5 23v-4q-57 -59 -118.5 -87.5t-129.5 -28.5q-84 0 -133 45t-49 120zM405 1139q72 90 119 182t84 213 h268q-86 -111 -199.5 -208t-263.5 -187h-8z" />
<glyph unicode="&#xee;" horiz-adv-x="565" d="M199 145q0 18 2 35t6 31l145 580q6 23 9.5 40t3.5 31q0 41 -19.5 71t-71.5 64v4h363l-203 -813q-4 -10 -5 -20t-1 -18q0 -37 23.5 -58.5t64.5 -21.5q25 0 52.5 7t60.5 23v-4q-57 -59 -118.5 -87.5t-129.5 -28.5q-84 0 -133 45t-49 120zM236 1120q115 90 228.5 210 t184.5 229h8q25 -141 65 -252t95 -187h-18q-57 29 -103.5 68t-105.5 108q-72 -51 -157 -96t-179 -80h-18z" />
<glyph unicode="&#xef;" horiz-adv-x="565" d="M199 145q0 18 2 35t6 31l145 580q6 23 9.5 40t3.5 31q0 41 -19.5 71t-71.5 64v4h363l-203 -813q-4 -10 -5 -20t-1 -18q0 -37 23.5 -58.5t64.5 -21.5q25 0 52.5 7t60.5 23v-4q-57 -59 -118.5 -87.5t-129.5 -28.5q-84 0 -133 45t-49 120zM254 1300q0 63 43 107.5t106 44.5 q59 0 98.5 -38t39.5 -95q0 -61 -44 -104.5t-110 -43.5q-57 0 -95 37t-38 92zM643 1300q0 63 43 107.5t106 44.5q59 0 98.5 -38t39.5 -95q0 -61 -44 -104.5t-110 -43.5q-57 0 -95 37t-38 92z" />
<glyph unicode="&#xf0;" horiz-adv-x="1099" d="M174 385q0 260 173 448.5t415 188.5q49 0 96 -14.5t88 -42.5q-16 96 -48 178t-79 147l-280 -121l-23 45l272 117q-68 78 -156.5 129t-203.5 76l6 18q137 -14 254 -58t207 -120l205 88l22 -45l-184 -80q117 -111 179.5 -267.5t62.5 -338.5q-2 -326 -169 -539.5 t-423 -213.5q-186 0 -300 109.5t-114 295.5zM408 303q0 -141 45 -213t133 -72q92 0 174 104.5t133 283.5q23 82 35 155.5t12 134.5q0 143 -44 215t-132 72q-92 0 -175 -105.5t-132 -281.5q-25 -86 -37 -160t-12 -133z" />
<glyph unicode="&#xf1;" horiz-adv-x="1193" d="M168 0l197 791q6 18 8 35.5t2 35.5q0 41 -19.5 72t-68.5 63v4h362l-82 -327q80 162 196 255t243 93q98 0 153 -59.5t55 -161.5q0 -29 -4 -57.5t-10 -55.5l-125 -500q-4 -10 -5 -20t-1 -18q0 -37 23.5 -58.5t64.5 -21.5q25 0 52.5 7t60.5 23v-4q-57 -59 -118.5 -87.5 t-129.5 -28.5q-84 0 -133 45t-49 120q0 18 2 35t6 31l119 469q8 41 11 64.5t3 41.5q0 53 -25.5 79t-76.5 26q-111 0 -213.5 -117t-151.5 -315l-115 -459h-231zM501 1171q55 141 135 221.5t162 80.5q31 0 62.5 -13.5t85.5 -54.5q53 -39 82.5 -51.5t58.5 -12.5q55 0 107.5 36 t101.5 106h16q-59 -141 -137 -221t-160 -80q-31 0 -62.5 13t-84.5 54q-53 39 -83 51.5t-58 12.5q-55 0 -108.5 -36t-100.5 -106h-17z" />
<glyph unicode="&#xf2;" horiz-adv-x="1099" d="M174 385q0 260 173 448.5t415 188.5q186 0 300 -110.5t114 -295.5q0 -260 -173 -448t-415 -188q-184 0 -298 109.5t-116 295.5zM410 303q0 -143 44 -214t132 -71q92 0 175 106t132 282q25 88 37 159.5t12 130.5q0 143 -45 215t-133 72q-92 0 -174 -104.5t-133 -282.5 q-23 -82 -35 -156.5t-12 -136.5zM671 1534h244q-10 -100 3 -196.5t50 -198.5h-10q-109 90 -179.5 187t-107.5 208z" />
<glyph unicode="&#xf3;" horiz-adv-x="1099" d="M174 385q0 260 173 448.5t415 188.5q186 0 300 -110.5t114 -295.5q0 -260 -173 -448t-415 -188q-184 0 -298 109.5t-116 295.5zM410 303q0 -143 44 -214t132 -71q92 0 175 106t132 282q25 88 37 159.5t12 130.5q0 143 -45 215t-133 72q-92 0 -174 -104.5t-133 -282.5 q-23 -82 -35 -156.5t-12 -136.5zM700 1139q72 90 119 182t84 213h268q-86 -111 -199.5 -208t-263.5 -187h-8z" />
<glyph unicode="&#xf4;" horiz-adv-x="1099" d="M174 385q0 260 173 448.5t415 188.5q186 0 300 -110.5t114 -295.5q0 -260 -173 -448t-415 -188q-184 0 -298 109.5t-116 295.5zM410 303q0 -143 44 -214t132 -71q92 0 175 106t132 282q25 88 37 159.5t12 130.5q0 143 -45 215t-133 72q-92 0 -174 -104.5t-133 -282.5 q-23 -82 -35 -156.5t-12 -136.5zM508 1120q135 106 253.5 225t184.5 214h8q16 -100 71.5 -220.5t129.5 -218.5h-19q-66 31 -128 81t-115 110q-74 -51 -174.5 -103.5t-192.5 -87.5h-18z" />
<glyph unicode="&#xf5;" horiz-adv-x="1099" d="M174 385q0 260 173 448.5t415 188.5q186 0 300 -110.5t114 -295.5q0 -260 -173 -448t-415 -188q-184 0 -298 109.5t-116 295.5zM410 303q0 -143 44 -214t132 -71q92 0 175 106t132 282q25 88 37 159.5t12 130.5q0 143 -45 215t-133 72q-92 0 -174 -104.5t-133 -282.5 q-23 -82 -35 -156.5t-12 -136.5zM456 1171q55 141 135 221.5t162 80.5q31 0 62.5 -13.5t85.5 -54.5q53 -39 82.5 -51.5t58.5 -12.5q55 0 107.5 36t101.5 106h16q-59 -141 -137 -221t-160 -80q-31 0 -62.5 13t-84.5 54q-53 39 -83 51.5t-58 12.5q-55 0 -108.5 -36 t-100.5 -106h-17z" />
<glyph unicode="&#xf6;" horiz-adv-x="1099" d="M174 385q0 260 173 448.5t415 188.5q186 0 300 -110.5t114 -295.5q0 -260 -173 -448t-415 -188q-184 0 -298 109.5t-116 295.5zM410 303q0 -143 44 -214t132 -71q92 0 175 106t132 282q25 88 37 159.5t12 130.5q0 143 -45 215t-133 72q-92 0 -174 -104.5t-133 -282.5 q-23 -82 -35 -156.5t-12 -136.5zM541 1300q0 63 43 107.5t106 44.5q59 0 98.5 -38t39.5 -95q0 -61 -44 -104.5t-110 -43.5q-57 0 -95 37t-38 92zM930 1300q0 63 43 107.5t106 44.5q59 0 98.5 -38t39.5 -95q0 -61 -44 -104.5t-110 -43.5q-57 0 -95 37t-38 92z" />
<glyph unicode="&#xf7;" horiz-adv-x="980" d="M248 631l12 57h801l-12 -57h-801zM506 322q0 29 18.5 48t46.5 19q29 0 48.5 -19t19.5 -48q0 -27 -20.5 -46.5t-47.5 -19.5t-46 19.5t-19 46.5zM672 997q0 29 19.5 47.5t45.5 18.5q29 0 48.5 -19.5t19.5 -46.5t-19.5 -47t-48.5 -20q-27 0 -46 19.5t-19 47.5z" />
<glyph unicode="&#xf8;" horiz-adv-x="1112" d="M88 -14l168 149q-37 51 -56.5 114.5t-19.5 135.5q0 260 173 448.5t415 188.5q104 0 188 -36t138 -103l157 141l35 -31l-166 -147q31 -47 46.5 -105.5t15.5 -124.5q0 -260 -173 -448t-415 -188q-94 0 -174 30.5t-135 89.5l-162 -145zM416 279l530 473q-8 115 -52 173 t-124 58q-92 0 -174 -104.5t-133 -282.5q-23 -82 -35 -156.5t-12 -136.5v-24zM420 221q12 -102 55 -152.5t117 -50.5q92 0 175 105.5t132 282.5q25 86 37 156.5t12 129.5z" />
<glyph unicode="&#xf9;" horiz-adv-x="1185" d="M217 217q0 23 3 46.5t9 49.5l121 478q6 18 8 35.5t2 35.5q0 41 -19 72t-71 63v4h363l-174 -696q-4 -25 -7 -45t-3 -37q0 -55 27.5 -83.5t82.5 -28.5q106 0 203.5 114.5t146.5 311.5l117 464h231l-202 -813q-4 -10 -5 -20t-1 -18q0 -37 23.5 -58.5t64.5 -21.5q25 0 52 7 t60 23v-4q-57 -59 -118.5 -87.5t-129.5 -28.5q-84 0 -133 45t-49 118q0 20 4 44t33 135q-82 -168 -186.5 -255t-225.5 -87q-104 0 -165.5 64.5t-61.5 172.5zM661 1534h244q-10 -100 3 -196.5t50 -198.5h-10q-109 90 -179.5 187t-107.5 208z" />
<glyph unicode="&#xfa;" horiz-adv-x="1185" d="M217 217q0 23 3 46.5t9 49.5l121 478q6 18 8 35.5t2 35.5q0 41 -19 72t-71 63v4h363l-174 -696q-4 -25 -7 -45t-3 -37q0 -55 27.5 -83.5t82.5 -28.5q106 0 203.5 114.5t146.5 311.5l117 464h231l-202 -813q-4 -10 -5 -20t-1 -18q0 -37 23.5 -58.5t64.5 -21.5q25 0 52 7 t60 23v-4q-57 -59 -118.5 -87.5t-129.5 -28.5q-84 0 -133 45t-49 118q0 20 4 44t33 135q-82 -168 -186.5 -255t-225.5 -87q-104 0 -165.5 64.5t-61.5 172.5zM710 1139q72 90 119 182t84 213h268q-86 -111 -199.5 -208t-263.5 -187h-8z" />
<glyph unicode="&#xfb;" horiz-adv-x="1185" d="M217 217q0 23 3 46.5t9 49.5l121 478q6 18 8 35.5t2 35.5q0 41 -19 72t-71 63v4h363l-174 -696q-4 -25 -7 -45t-3 -37q0 -55 27.5 -83.5t82.5 -28.5q106 0 203.5 114.5t146.5 311.5l117 464h231l-202 -813q-4 -10 -5 -20t-1 -18q0 -37 23.5 -58.5t64.5 -21.5q25 0 52 7 t60 23v-4q-57 -59 -118.5 -87.5t-129.5 -28.5q-84 0 -133 45t-49 118q0 20 4 44t33 135q-82 -168 -186.5 -255t-225.5 -87q-104 0 -165.5 64.5t-61.5 172.5zM527 1120q135 106 253.5 225t184.5 214h8q16 -100 71.5 -220.5t129.5 -218.5h-19q-66 31 -128 81t-115 110 q-74 -51 -174.5 -103.5t-192.5 -87.5h-18z" />
<glyph unicode="&#xfc;" horiz-adv-x="1185" d="M217 217q0 23 3 46.5t9 49.5l121 478q6 18 8 35.5t2 35.5q0 41 -19 72t-71 63v4h363l-174 -696q-4 -25 -7 -45t-3 -37q0 -55 27.5 -83.5t82.5 -28.5q106 0 203.5 114.5t146.5 311.5l117 464h231l-202 -813q-4 -10 -5 -20t-1 -18q0 -37 23.5 -58.5t64.5 -21.5q25 0 52 7 t60 23v-4q-57 -59 -118.5 -87.5t-129.5 -28.5q-84 0 -133 45t-49 118q0 20 4 44t33 135q-82 -168 -186.5 -255t-225.5 -87q-104 0 -165.5 64.5t-61.5 172.5zM559 1300q0 63 43 107.5t106 44.5q59 0 98.5 -38t39.5 -95q0 -61 -44 -104.5t-110 -43.5q-57 0 -95 37t-38 92z M948 1300q0 63 43 107.5t106 44.5q59 0 98.5 -38t39.5 -95q0 -61 -44 -104.5t-110 -43.5q-57 0 -95 37t-38 92z" />
<glyph unicode="&#xfd;" horiz-adv-x="1146" d="M57 -236q0 70 47.5 114t120.5 44q35 0 69 -13t58 -36q-47 -6 -73.5 -44t-26.5 -97q0 -80 47 -127t129 -47q133 0 219 114.5t158 407.5l61 250q-92 -176 -193.5 -259t-221.5 -83q-106 0 -169 65.5t-63 171.5q0 23 3 47.5t9 49.5l119 469q6 27 8 43t2 28q0 41 -19 72 t-71 63v4h363l-170 -688q-6 -23 -9 -42t-3 -40q0 -55 25.5 -83.5t76.5 -28.5q115 0 216 114.5t151 311.5l114 456h232l-211 -835q-86 -342 -233.5 -492.5t-393.5 -150.5q-158 0 -264.5 67.5t-106.5 173.5zM714 1139q72 90 119 182t84 213h268q-86 -111 -199.5 -208 t-263.5 -187h-8z" />
<glyph unicode="&#xfe;" horiz-adv-x="1198" d="M47 -457l442 1780q6 27 9.5 42t3.5 30q0 41 -19.5 70.5t-70.5 64.5v4h360l-197 -793q74 133 176.5 207t217.5 74q147 0 228 -98.5t81 -274.5q0 -270 -161 -469.5t-390 -199.5q-113 0 -191.5 64.5t-93.5 164.5l-166 -666h-229zM471 266q0 -96 51 -152.5t137 -56.5 q158 0 270.5 185.5t112.5 421.5q0 121 -45 185t-129 64q-111 0 -206 -98t-130 -250l-47 -182q-6 -31 -10 -59.5t-4 -57.5z" />
<glyph unicode="&#xff;" horiz-adv-x="1146" d="M57 -236q0 70 47.5 114t120.5 44q35 0 69 -13t58 -36q-47 -6 -73.5 -44t-26.5 -97q0 -80 47 -127t129 -47q133 0 219 114.5t158 407.5l61 250q-92 -176 -193.5 -259t-221.5 -83q-106 0 -169 65.5t-63 171.5q0 23 3 47.5t9 49.5l119 469q6 27 8 43t2 28q0 41 -19 72 t-71 63v4h363l-170 -688q-6 -23 -9 -42t-3 -40q0 -55 25.5 -83.5t76.5 -28.5q115 0 216 114.5t151 311.5l114 456h232l-211 -835q-86 -342 -233.5 -492.5t-393.5 -150.5q-158 0 -264.5 67.5t-106.5 173.5zM563 1300q0 63 43 107.5t106 44.5q59 0 98.5 -38t39.5 -95 q0 -61 -44 -104.5t-110 -43.5q-57 0 -95 37t-38 92zM952 1300q0 63 43 107.5t106 44.5q59 0 98.5 -38t39.5 -95q0 -61 -44 -104.5t-110 -43.5q-57 0 -95 37t-38 92z" />
<glyph unicode="&#x152;" horiz-adv-x="2168" d="M240 555q-2 397 264 638t694 241h1022q55 0 82 4t45 12l-18 -369h-5q-49 170 -133 234.5t-241 64.5h-320l-153 -622h254q129 0 193.5 44t148.5 181h4l-119 -479h-4q-8 70 -22.5 109.5t-39.5 60.5q-23 16 -58.5 23.5t-117.5 7.5h-254l-162 -652h340q156 0 276 70t286 283 h4l-158 -406h-1149q-303 0 -481 150.5t-178 404.5zM498 522q0 -223 107.5 -346t309.5 -123h148l332 1327h-197q-309 0 -504.5 -245.5t-195.5 -612.5z" />
<glyph unicode="&#x153;" horiz-adv-x="1708" d="M174 385q0 260 173 448.5t415 188.5q111 0 199 -51t141 -146q86 94 194.5 145.5t223.5 51.5q131 0 214 -61.5t83 -159.5q0 -154 -173.5 -238t-502.5 -92q-2 -25 -4 -49.5t-2 -46.5q0 -145 67.5 -221t194.5 -76q92 0 173 44t154 136h11q-63 -133 -177.5 -205.5 t-257.5 -72.5q-106 0 -190 48t-135 140q-80 -90 -180.5 -139t-206.5 -49q-186 0 -300 109.5t-114 295.5zM408 303q0 -141 45 -213t133 -72q92 0 174 104.5t133 283.5q23 82 35 155.5t12 134.5q0 143 -44 215t-132 72q-92 0 -175 -105.5t-132 -281.5q-25 -86 -37 -160 t-12 -133zM1145 496q229 20 352 114t123 252q0 57 -26.5 89t-73.5 32q-123 0 -231.5 -144.5t-143.5 -342.5z" />
<glyph unicode="&#x178;" horiz-adv-x="1331" d="M354 1430v4h443v-4q-49 -25 -75 -59t-26 -75q0 -14 3 -29.5t10 -29.5l202 -573l478 559q25 29 37 56.5t12 51.5q0 29 -16.5 54.5t-49.5 44.5v4h322v-4q-59 -37 -104.5 -77t-133.5 -143l-524 -610l-88 -354q-10 -37 -14.5 -63.5t-4.5 -49.5q0 -45 19.5 -75.5t62.5 -53.5 v-4h-471v4q78 35 118 87t64 155l91 354l-226 610q-31 88 -57.5 132t-71.5 88zM782 1690q0 63 43 107t107 44q59 0 98 -38t39 -95q0 -61 -44 -104t-110 -43q-57 0 -95 37t-38 92zM1171 1690q0 63 43 107t107 44q59 0 98 -38t39 -95q0 -61 -44 -104t-110 -43q-57 0 -95 37 t-38 92z" />
<glyph unicode="&#x2c6;" d="M451 1120q135 106 253.5 225t184.5 214h8q16 -100 71.5 -220.5t129.5 -218.5h-19q-66 31 -128 81t-115 110q-74 -51 -174.5 -103.5t-192.5 -87.5h-18z" />
<glyph unicode="&#x2dc;" d="M438 1171q55 141 135 221.5t162 80.5q31 0 62.5 -13.5t85.5 -54.5q53 -39 82.5 -51.5t58.5 -12.5q55 0 107.5 36t101.5 106h16q-59 -141 -137 -221t-160 -80q-31 0 -62.5 13t-84.5 54q-53 39 -83 51.5t-58 12.5q-55 0 -108.5 -36t-100.5 -106h-17z" />
<glyph unicode="&#x2000;" horiz-adv-x="971" />
<glyph unicode="&#x2001;" horiz-adv-x="1942" />
<glyph unicode="&#x2002;" horiz-adv-x="971" />
<glyph unicode="&#x2003;" horiz-adv-x="1942" />
<glyph unicode="&#x2004;" horiz-adv-x="647" />
<glyph unicode="&#x2005;" horiz-adv-x="485" />
<glyph unicode="&#x2006;" horiz-adv-x="323" />
<glyph unicode="&#x2007;" horiz-adv-x="323" />
<glyph unicode="&#x2008;" horiz-adv-x="242" />
<glyph unicode="&#x2009;" horiz-adv-x="388" />
<glyph unicode="&#x200a;" horiz-adv-x="107" />
<glyph unicode="&#x2010;" horiz-adv-x="653" d="M205 530l20 84h510l-20 -84h-510z" />
<glyph unicode="&#x2011;" horiz-adv-x="653" d="M205 530l20 84h510l-20 -84h-510z" />
<glyph unicode="&#x2012;" horiz-adv-x="653" d="M205 530l20 84h510l-20 -84h-510z" />
<glyph unicode="&#x2013;" horiz-adv-x="1003" d="M205 537l16 67h860l-16 -67h-860z" />
<glyph unicode="&#x2014;" horiz-adv-x="1617" d="M207 537l16 67h1475l-17 -67h-1474z" />
<glyph unicode="&#x2018;" horiz-adv-x="438" d="M326 1126q0 154 127 261.5t307 113.5l-4 -33q-133 -12 -224.5 -89t-97.5 -183q18 12 40 18.5t48 6.5q53 0 86 -34t33 -87q0 -68 -45 -112t-115 -44t-112.5 50t-42.5 132z" />
<glyph unicode="&#x2019;" horiz-adv-x="438" d="M285 930l4 33q133 12 224 89t97 183q-18 -12 -39.5 -18.5t-48.5 -6.5q-53 0 -86 34t-33 87q0 68 45.5 112t114.5 44q70 0 113 -50.5t43 -131.5q0 -154 -127 -261.5t-307 -113.5z" />
<glyph unicode="&#x201a;" horiz-adv-x="438" d="M-16 -281l4 33q133 12 224 89.5t97 183.5q-18 -12 -39.5 -18.5t-48.5 -6.5q-53 0 -86 34t-33 87q0 68 45.5 111.5t114.5 43.5q70 0 113 -50t43 -132q0 -154 -127 -261t-307 -114z" />
<glyph unicode="&#x201c;" horiz-adv-x="843" d="M326 1126q0 154 127 261.5t307 113.5l-4 -33q-133 -12 -224.5 -89t-97.5 -183q18 12 40 18.5t48 6.5q53 0 86 -34t33 -87q0 -68 -45 -112t-115 -44t-112.5 50t-42.5 132zM731 1126q0 154 127 261.5t307 113.5l-4 -33q-133 -12 -224 -89t-97 -183q18 12 39.5 18.5 t46.5 6.5q53 0 87 -34t34 -87q0 -68 -46.5 -112t-113.5 -44q-72 0 -114 50t-42 132z" />
<glyph unicode="&#x201d;" horiz-adv-x="843" d="M285 930l4 35q133 10 224 86.5t97 185.5q-20 -12 -41.5 -19.5t-44.5 -7.5q-53 0 -87 35t-34 88q0 66 45.5 110t114.5 44q72 0 114 -50.5t42 -131.5q0 -154 -127 -261.5t-307 -113.5zM690 930l4 35q133 10 224.5 86.5t97.5 185.5q-20 -14 -42 -20.5t-46 -6.5q-53 0 -86 35 t-33 88q0 68 45 111t115 43t112.5 -50.5t42.5 -131.5q0 -154 -127 -261.5t-307 -113.5z" />
<glyph unicode="&#x201e;" horiz-adv-x="843" d="M-16 -281l4 33q133 12 224 89t97 186q-18 -14 -39.5 -20.5t-46.5 -6.5q-53 0 -87 35t-34 88q0 66 45.5 109.5t114.5 43.5q72 0 114 -50t42 -132q0 -154 -127 -261t-307 -114zM389 -281l4 33q133 12 224.5 89t97.5 186q-18 -14 -40 -20.5t-48 -6.5q-53 0 -86 34t-33 89 q0 68 45 110.5t115 42.5t112.5 -50t42.5 -132q0 -154 -127 -261t-307 -114z" />
<glyph unicode="&#x2022;" horiz-adv-x="684" d="M219 559q0 109 78 185.5t184 76.5t183 -76.5t77 -185.5t-77 -185.5t-183 -76.5t-184 78t-78 184z" />
<glyph unicode="&#x2026;" horiz-adv-x="1288" d="M113 141q0 70 45.5 116t113.5 46t113 -47t45 -115q0 -66 -46 -112.5t-112 -46.5q-68 0 -113.5 46t-45.5 113zM521 141q0 70 45.5 116t113.5 46t113 -47t45 -115q0 -66 -46 -112.5t-112 -46.5q-68 0 -113.5 46t-45.5 113zM928 141q0 70 45.5 116t113.5 46t113 -47t45 -115 q0 -66 -46 -112.5t-112 -46.5q-68 0 -113.5 46t-45.5 113z" />
<glyph unicode="&#x202f;" horiz-adv-x="388" />
<glyph unicode="&#x2039;" horiz-adv-x="598" d="M166 498v4q164 76 321.5 177t278.5 206h8q-78 -113 -168 -219.5t-170 -182.5q59 -102 93 -189t53 -179h-9q-68 106 -174 206.5t-233 176.5z" />
<glyph unicode="&#x203a;" horiz-adv-x="598" d="M74 115q82 119 171 224t167 177q-59 102 -93 189.5t-53 179.5h8q68 -106 174.5 -206.5t233.5 -176.5v-4q-164 -76 -321.5 -177.5t-278.5 -205.5h-8z" />
<glyph unicode="&#x205f;" horiz-adv-x="485" />
<glyph unicode="&#x20ac;" horiz-adv-x="1282" d="M197 596l10 41h155q4 41 12.5 79t18.5 75h-147l10 38h150q86 276 288.5 451.5t438.5 175.5q162 0 259 -70.5t97 -191.5q0 -94 -61.5 -155.5t-153.5 -61.5q-51 0 -94 23.5t-58 58.5q8 -2 11.5 -2h11.5q72 0 119 52t47 132q0 86 -43 130t-127 44q-154 0 -292 -165 t-206 -421h424l-27 -38h-407q-12 -63 -17.5 -95t-9.5 -59h348l-26 -41h-324q-2 -39 -3 -54.5t-1 -29.5q0 -193 82 -300.5t227 -107.5q133 0 236.5 78t179.5 234h12q-68 -211 -204 -323.5t-320 -112.5q-207 0 -333 141t-126 385q0 16 1 36.5t3 53.5h-161z" />
<glyph unicode="&#x2122;" horiz-adv-x="1740" d="M383 1235l80 205q10 -4 21.5 -5t29.5 -1h498q18 0 30.5 1t24.5 5l-23 -205h-4q-2 4 -18 46t-29 62q-16 29 -38.5 42.5t-55.5 13.5h-68l-122 -488q-10 -37 -5 -56t41 -42l-2 -4h-274l2 4q47 23 61.5 42t24.5 56l123 488h-72q-45 0 -86 -26.5t-133 -137.5h-6zM1004 809v4 q45 25 57 41t20 53l107 422q8 37 4 55.5t-33 45.5v4h213l80 -410l281 410h215v-4q-45 -25 -56.5 -41.5t-21.5 -55.5l-107 -426q-10 -39 -6 -55t37 -39l-2 -4h-254v4q41 23 52.5 38t21.5 56l110 443l-379 -551h-4l-102 551l-111 -443q-8 -37 -5 -53t36 -41v-4h-153z" />
<glyph unicode="&#x25fc;" d="M0 0v1024h1024v-1024h-1024z" />
</font>
</defs>
</svg>
