<svg version="1.1" id="Layer_1" xmlns="http://www.w3.org/2000/svg" xmlns:xlink="http://www.w3.org/1999/xlink" x="0px" y="0px" width="30px" height="29.8px" viewBox="0 0 30 29.8" style="enable-background:new 0 0 30 29.8;" xml:space="preserve"><metadata><?xpacket begin="﻿" id="W5M0MpCehiHzreSzNTczkc9d"?><x:xmpmeta xmlns:x="adobe:ns:meta/" x:xmptk="Adobe XMP Core 5.6-c067 79.157747, 2015/03/30-23:40:42        "><rdf:RDF xmlns:rdf="http://www.w3.org/1999/02/22-rdf-syntax-ns#"><rdf:Description rdf:about=""/></rdf:RDF></x:xmpmeta><?xpacket end="w"?></metadata><style type="text/css">.user-icon{fill:#C1C1C0;}</style><path class="user-icon" d="M18.6,17.9c2,1.1,3.6-0.3,3.6-0.3c-0.2,0-0.4-0.2-0.6-0.3c1,0.1,1.8-0.6,1.8-0.6c-0.1-0.1-0.3-0.2-0.4-0.3c0.6-0.5,1-0.9,1-0.9s-1.8-1.2-1.8-7.8c0-3.2-2.1-5.9-4.9-6.8c-2.8-0.4-4,1.2-4,1.2c-1-0.6-2.1-0.4-2.9,0.2C8.8,3.6,7.8,5.5,7.8,7.7c0,6.6-1.8,7.8-1.8,7.8s0.3,0.4,1,0.9c-0.2,0.2-0.3,0.3-0.4,0.3c0,0,0.8,0.7,1.8,0.6c-0.2,0.2-0.4,0.3-0.6,0.3c0,0,1.6,1.4,3.6,0.3c-0.1,4.7-10.7,3.6-10.7,9.5v1.2c0,0.3,0.3,0.6,0.6,0.6h27.5c0.3,0,0.6-0.3,0.6-0.6v-1.2C29.3,21.4,18.7,22.6,18.6,17.9z"/></svg>
