<?xml version="1.0" encoding="utf-8"?>
<!-- Generator: Adobe Illustrator 19.0.0, SVG Export Plug-In . SVG Version: 6.00 Build 0)  -->
<!DOCTYPE svg PUBLIC "-//W3C//DTD SVG 1.1//EN" "http://www.w3.org/Graphics/SVG/1.1/DTD/svg11.dtd">
<svg version="1.1" id="Layer_1" xmlns="http://www.w3.org/2000/svg" xmlns:xlink="http://www.w3.org/1999/xlink" x="0px" y="0px"
	 width="16.8px" height="12px" viewBox="-491 495 16.8 12" style="enable-background:new -491 495 16.8 12;" xml:space="preserve">
<style type="text/css">
	.st0{fill:#333333;}
</style>
<g id="XMLID_7_">
	<path id="XMLID_12_" class="st0" d="M-482.5,503.9l-7.5-5.8v7.9c0,0.6,0.6,1,0.8,1h12.9c0.3,0,0.6-0.1,0.8-0.3
		c0.2-0.2,0.4-0.4,0.4-0.7v-7.9L-482.5,503.9z"/>
	<path id="XMLID_15_" class="st0" d="M-475,496.5c0-0.3-0.1-0.7-0.3-0.9c-0.2-0.2-0.4-0.6-0.7-0.6h-13.1c-0.3,0-0.5,0.4-0.7,0.6
		c-0.2,0.2-0.3,0.5-0.3,0.8l7.5,5.7L-475,496.5z"/>
</g>
</svg>
