<svg class="enlarge-svg" version="1.1" id="Layer_1" xmlns="http://www.w3.org/2000/svg" xmlns:xlink="http://www.w3.org/1999/xlink" x="0px" y="0px"
	 width="24.2px" height="23.8px" viewBox="-489.2 488.2 24.2 23.8" style="enable-background:new -489.2 488.2 24.2 23.8;"
	 xml:space="preserve">
<style type="text/css">
	.st0{fill:#FFFFFF;}
	.st1{fill:#333333;}
</style>
<rect id="XMLID_183_" x="-488.1" y="489.1" class="st0" width="22.2" height="22.2"/>
<g id="XMLID_177_">
	<polygon id="XMLID_196_" class="st1" points="-469,499.9 -470.2,499.9 -470.2,493.1 -476.9,493.1 -476.9,492 -469,492 	"/>
</g>
<g id="XMLID_178_">

		<rect id="XMLID_195_" x="-473.4" y="491.3" transform="matrix(0.7071 0.7071 -0.7071 0.7071 212.2141 479.567)" class="st1" width="1.2" height="9.3"/>
</g>
<g id="XMLID_179_">
	<polygon id="XMLID_194_" class="st1" points="-477,508.4 -484.9,508.4 -484.9,500.4 -483.7,500.4 -483.7,507.2 -477,507.2 	"/>
</g>
<g id="XMLID_176_">

		<rect id="XMLID_193_" x="-481.7" y="499.7" transform="matrix(0.7071 0.7071 -0.7071 0.7071 215.7386 487.9366)" class="st1" width="1.2" height="9.3"/>
</g>
<g id="XMLID_181_">
	<path id="XMLID_190_" class="st1" d="M-465.5,511.7h-23v-23h23V511.7z M-487.7,510.9h21.4v-21.4h-21.4V510.9z"/>
</g>
</svg>
