<svg class="event-tracker-svg" version="1.1" xmlns="http://www.w3.org/2000/svg" xmlns:xlink="http://www.w3.org/1999/xlink" x="0px" y="0px" width="71px" height="56px" viewBox="0 0 71 56" style="enable-background:new 0 0 71 56;" xml:space="preserve"><style type="text/css">.st0{fill:none;stroke:#000000;stroke-width:1.2735;stroke-miterlimit:10;}.st1{fill:#CCCCCC;}.st2{opacity:0.8;fill:#FFFFFF;stroke:#8B8B89;stroke-width:4;stroke-miterlimit:10;}.st3{fill:none;stroke:#8B8B89;stroke-width:4;stroke-miterlimit:10;}.st4{fill:#FFFFFF;stroke:#8B8B89;stroke-width:4;stroke-miterlimit:10;}.st5{fill:#8B8B89;}</style><g id="Layer_1"><g><path class="st1" d="M0,0v56h71V0H0z M69,54H2V11h67V54z"/><path class="st1" d="M24,26H10v14h14V26z M23,39H11V27h12V39z"/><path class="st1" d="M43,26H29v14h14V26z M42,39H30V27h12V39z"/><path class="st1" d="M62,26H48v14h14V26z M59.9,30l-6,6.4c-0.1,0.1-0.2,0.6-0.4,0.6c0,0,0,0,0,0c-0.1,0-0.3-0.5-0.4-0.6l-2.9-3.5c-0.2-0.2-0.2-0.6,0-0.8c0.2-0.2,0.5-0.2,0.7,0l2.5,2.8l5.6-5.6c0.2-0.2,0.5-0.2,0.7,0S60,29.8,59.9,30z"/></g></g><g id="Layer_2"></g></svg>
