<?xml version="1.0" encoding="utf-8"?>
<!-- Generator: Adobe Illustrator 19.0.0, SVG Export Plug-In . SVG Version: 6.00 Build 0)  -->
<!DOCTYPE svg PUBLIC "-//W3C//DTD SVG 1.1//EN" "http://www.w3.org/Graphics/SVG/1.1/DTD/svg11.dtd">
<svg version="1.1" id="Layer_1" xmlns="http://www.w3.org/2000/svg" xmlns:xlink="http://www.w3.org/1999/xlink" x="0px" y="0px"
	 width="16.6px" height="16.5px" viewBox="-491 493.4 16.6 16.5" style="enable-background:new -491 493.4 16.6 16.5;"
	 xml:space="preserve">
<style type="text/css">
	.st0{fill:#333333;}
</style>
<path id="XMLID_32_" class="st0" d="M-475,508.4c0,0.5-0.4,1-1,1h-3.9v-6.1h1.9l0.3-2.2h-2.3v-1.8c0-0.6,0.3-1,1-1h1.5v-2
	c0,0-0.7-0.1-1.6-0.1c-2.1,0-3.2,1.2-3.2,3v1.9h-1.9v2.2h1.9v6.1h-7.4c-0.5,0-1-0.4-1-1v-13.6c0-0.5,0.4-1,1-1h13.6c0.5,0,1,0.4,1,1
	V508.4z"/>
</svg>
