<svg class="favorites-list-svg" version="1.1" xmlns="http://www.w3.org/2000/svg" xmlns:xlink="http://www.w3.org/1999/xlink" x="0px" y="0px" width="60.5px" height="71px" viewBox="0 0 60.5 71" style="enable-background:new 0 0 60.5 71;" xml:space="preserve"><style type="text/css">.st0{fill:none;stroke:#000000;stroke-width:1.2735;stroke-miterlimit:10;}.st1{fill:#CCCCCC;}.st2{opacity:0.8;fill:#FFFFFF;stroke:#8B8B89;stroke-width:4;stroke-miterlimit:10;}.st3{fill:none;stroke:#8B8B89;stroke-width:4;stroke-miterlimit:10;}.st4{fill:#FFFFFF;stroke:#8B8B89;stroke-width:4;stroke-miterlimit:10;}.st5{fill:#8B8B89;}
</style><g id="Layer_1"><g><path class="st1" d="M23.6,25L23.6,25c1.2,0,5.6-5.6,6.4-7.5c0.8-2.1,0.1-5.4-2.9-5.4c-2.2,0-3.1,1.1-3.4,1.7c-0.3-0.6-1.3-1.7-3.4-1.7c-3,0-3.7,3.2-2.9,5.4C18,19.4,22.4,25,23.6,25z"/><path class="st1" d="M4.5,0v13h-4C0.2,13,0,13.2,0,13.5S0.2,14,0.5,14h4v10h-4C0.2,24,0,24.2,0,24.5S0.2,25,0.5,25h4v10h-4C0.2,35,0,35.2,0,35.5S0.2,36,0.5,36h4v10h-4C0.2,46,0,46.2,0,46.5S0.2,47,0.5,47h4v10h-4C0.2,57,0,57.2,0,57.5S0.2,58,0.5,58h4v13h56V0H4.5z M58.5,69h-52V58h2.3c0.2,0.7,0.8,1.3,1.6,1.3c0.9,0,1.6-0.7,1.6-1.6c0-0.9-0.7-1.6-1.6-1.6c-0.7,0-1.3,0.4-1.5,1H6.5V47h2.3c0.2,0.6,0.8,1.1,1.5,1.1c0.9,0,1.6-0.7,1.6-1.6c0-0.9-0.7-1.6-1.6-1.6c-0.8,0-1.4,0.5-1.6,1.2H6.5V36h2.3c0.2,0.6,0.8,1.1,1.5,1.1c0.9,0,1.6-0.7,1.6-1.6c0-0.9-0.7-1.6-1.6-1.6c-0.8,0-1.4,0.5-1.6,1.2H6.5V25h2.3c0.2,0.6,0.8,1.1,1.5,1.1c0.9,0,1.6-0.7,1.6-1.6c0-0.9-0.7-1.6-1.6-1.6c-0.8,0-1.4,0.5-1.6,1.2H6.5V14h2.3c0.2,0.6,0.8,1.1,1.5,1.1c0.9,0,1.6-0.7,1.6-1.6c0-0.9-0.7-1.6-1.6-1.6c-0.8,0-1.4,0.5-1.6,1.2H6.5V2h52V69z"/><path class="st1" d="M23.6,42L23.6,42c1.2,0,5.6-5.3,6.4-7.1c0.8-2.1,0.1-5-2.9-5c-2.2,0-3.1,1.1-3.4,1.7c-0.3-0.6-1.3-1.7-3.4-1.7c-3,0-3.7,2.9-2.9,5C18,36.7,22.4,42,23.6,42z"/><path class="st1" d="M23.6,60L23.6,60c1.2,0,5.6-5.5,6.4-7.3c0.8-2.1,0.1-5.2-2.9-5.2c-2.2,0-3.1,1.1-3.4,1.7c-0.3-0.6-1.3-1.7-3.4-1.7c-3,0-3.7,3-2.9,5.2C18,54.5,22.4,60,23.6,60z"/><rect x="36.5" y="56" class="st1" width="11" height="2"/><rect x="36.5" y="51" class="st1" width="15" height="2"/><rect x="36.5" y="38" class="st1" width="11" height="2"/><rect x="36.5" y="33" class="st1" width="15" height="2"/><rect x="36.5" y="19" class="st1" width="11" height="2"/><rect x="36.5" y="15" class="st1" width="15" height="2"/></g>
</g>
<g id="Layer_2">
</g>
</svg>
