<?xml version="1.0" encoding="utf-8"?>
<!-- Generator: Adobe Illustrator 19.2.1, SVG Export Plug-In . SVG Version: 6.00 Build 0)  -->
<!DOCTYPE svg PUBLIC "-//W3C//DTD SVG 1.1//EN" "http://www.w3.org/Graphics/SVG/1.1/DTD/svg11.dtd">
<svg version="1.1" id="Layer_1" xmlns="http://www.w3.org/2000/svg" xmlns:xlink="http://www.w3.org/1999/xlink" x="0px" y="0px"
	 viewBox="0 0 14.8 15.1" enable-background="new 0 0 14.8 15.1" xml:space="preserve">
<path fill="#9D291F" d="M7.4,1.1C3.8,1.1,0.9,4,0.9,7.6s2.9,6.5,6.5,6.5s6.5-2.9,6.5-6.5S11,1.1,7.4,1.1z M8.1,11.7
	C8,11.9,7.7,12,7.4,12c-0.3,0-0.6-0.1-0.8-0.3S6.3,11.3,6.3,11c0-0.3,0.1-0.6,0.3-0.8C6.8,10.1,7,10,7.4,10c0.3,0,0.6,0.1,0.8,0.3
	c0.2,0.2,0.3,0.4,0.3,0.7C8.4,11.3,8.3,11.5,8.1,11.7z M8.1,8.8H6.7l-0.3-6h2.1L8.1,8.8z"/>
</svg>
