<svg class="hanger-svg" version="1.1" xmlns="http://www.w3.org/2000/svg" xmlns:xlink="http://www.w3.org/1999/xlink" x="0px" y="0px" width="105px" height="61.2px" viewBox="0 0 105 61.2" style="enable-background:new 0 0 105 61.2;" xml:space="preserve"> <style type="text/css">.st0{fill:none;stroke:#000000;stroke-width:1.2735;stroke-miterlimit:10;}.st1{fill:#CCCCCC;}.st2{opacity:0.8;fill:#FFFFFF;stroke:#8B8B89;stroke-width:4;stroke-miterlimit:10;}.st3{fill:none;stroke:#8B8B89;stroke-width:4;stroke-miterlimit:10;}.st4{fill:#FFFFFF;stroke:#8B8B89;stroke-width:4;stroke-miterlimit:10;}.st5{fill:#8B8B89;}</style><g id="Layer_1"><path id="XMLID_10_" class="st1" d="M73.9,35.9c-13.2-7.5-14.2-16.5-14.2-16.5c0,0-2.7-0.1-5.6-0.1v-0.9c0-1.9,1-3.8,2.8-5c2.6-1.8,4.5-5.4,2.7-9.3c-1.1-2.2-3.3-3.8-5.7-4.2c-2.6-0.3-5,0.7-6.8,2.8l-0.4,0.5c-0.9,1.1-0.9,1.1-2.6,1.1c-0.6,0-1,0.4-1,1s0.4,1,1,1c2.4,0,2.7-0.2,4.1-1.8l0.4-0.5c1-1.1,2.6-2.4,5-2.1c1.8,0.2,3.4,1.4,4.2,3.1c1.4,2.8-0.1,5.4-2,6.7c-2.3,1.6-3.7,4-3.7,6.6v0.9c-3.4,0-6.6,0-6.6,0.1c0,0-1,9-14.3,16.5c-12.3,7-32.4,13.9-31.1,23.6c0.2,1.1,1.4,2,2.4,1.4c0.7-0.4,1.6-1.4,2.6-1.4h94.9c1,0,1.9,1,2.6,1.4c1,0.6,2.3-0.1,2.4-1.3C106.3,50,86.2,42.9,73.9,35.9z M8.2,57.5c8.5-6,22-14.2,27.7-17.4c7.3-4.2,14.7-8.6,16.6-9.7c1.9,1.1,9.3,5.6,16.6,9.8c5.6,3.2,19.1,11.3,27.7,17.3H8.2z"/></g><g id="Layer_2"></g></svg>
