<svg version="1.1" id="instagram" xmlns="http://www.w3.org/2000/svg" xmlns:xlink="http://www.w3.org/1999/xlink" x="0px" y="0px"
   width="16px" height="16px" viewBox="-471 273 16 16" style="enable-background:new -471 273 16 16;" xml:space="preserve">
<defs><filter id="dropshadow" width="2" height="2"><feGaussianBlur in="SourceAlpha" stdDeviation="1" /><feOffset dx="1" dy="1" result="offsetblur" /><feFlood flood-color="black" flood-opacity="0.3" /><feComposite in2="offsetblur" operator="in" /><feMerge><feMergeNode/><feMergeNode in="SourceGraphic" /></feMerge></filter></defs>
<metadata><?xpacket begin="﻿" id="W5M0MpCehiHzreSzNTczkc9d"?>
<x:xmpmeta xmlns:x="adobe:ns:meta/" x:xmptk="Adobe XMP Core 5.6-c067 79.157747, 2015/03/30-23:40:42">
   <rdf:RDF xmlns:rdf="http://www.w3.org/1999/02/22-rdf-syntax-ns#">
      <rdf:Description rdf:about=""/>
   </rdf:RDF>
</x:xmpmeta><?xpacket end="w"?></metadata>
<style type="text/css">
  .instagram{fill:#FFFFFF;}
</style>
<path class="instagram" d="M-458.2,281c0-0.4-0.1-0.9-0.2-1.3h1.4v6.7c0,0.3-0.3,0.6-0.6,0.6h-10.8c-0.3,0-0.6-0.3-0.6-0.6v-6.7h1.4
  c-0.1,0.4-0.2,0.8-0.2,1.3c0,2.7,2.1,4.8,4.8,4.8C-460.4,285.8-458.2,283.7-458.2,281 M-466,281c0-1.7,1.3-3,3-3c1.7,0,3,1.4,3,3
  c0,1.7-1.3,3-3,3C-464.7,284-466,282.7-466,281 M-460,277.3v-1.8c0-0.3,0.3-0.6,0.6-0.6h1.8c0.3,0,0.6,0.3,0.6,0.6v1.8
  c0,0.3-0.3,0.6-0.6,0.6h-1.8C-459.8,277.9-460,277.7-460,277.3 M-469,273.1c-1,0-1.8,0.8-1.8,1.8V287c0,1,0.8,1.8,1.8,1.8h12
  c1,0,1.8-0.8,1.8-1.8V275c0-1-0.8-1.8-1.8-1.8H-469z"/>
</svg>
