<svg version="1.1" id="Layer_1" xmlns="http://www.w3.org/2000/svg" xmlns:xlink="http://www.w3.org/1999/xlink" x="0px" y="0px" width="13.2px" height="16.8px" viewBox="-494.1 493.4 13.2 16.8" style="enable-background:new -494.1 493.4 13.2 16.8;" xml:space="preserve"><defs><filter id="dropshadow" width="2" height="2"><feGaussianBlur in="SourceAlpha" stdDeviation="1" /><feOffset dx="1" dy="1" result="offsetblur" /><feFlood flood-color="black" flood-opacity="0.3" /><feComposite in2="offsetblur" operator="in" /><feMerge><feMergeNode/><feMergeNode in="SourceGraphic" /></feMerge></filter></defs><path id="XMLID_16_" class="st0" d="M-487,494c1.7,0,3,0.5,4.1,1.5c1.1,1,1.6,2.2,1.6,3.6c0,1.8-0.4,3.3-1.3,4.4c-0.9,1.2-2.1,1.7-3.5,1.7c-0.5,0-0.9-0.1-1.3-0.3c-0.4-0.2-0.7-0.5-0.9-0.8c-0.3,1.4-0.5,2.2-0.6,2.5c-0.1,0.4-0.3,0.9-0.6,1.4c-0.3,0.5-0.5,0.8-0.6,1.1c-0.2,0.2-0.3,0.4-0.4,0.5c0,0-0.1,0.1-0.1,0.1c0,0-0.1,0-0.1-0.1c-0.2-1.5-0.1-2.7,0-3.4l1.1-4.9c-0.2-0.4-0.3-0.9-0.3-1.4c0-0.7,0.2-1.2,0.5-1.7c0.3-0.4,0.7-0.7,1.2-0.7c0.4,0,0.7,0.1,0.9,0.4c0.2,0.3,0.3,0.6,0.3,1c0,0.2,0,0.5-0.1,0.9c-0.1,0.3-0.2,0.7-0.4,1.2s-0.2,0.8-0.3,1.1c-0.1,0.5,0,0.9,0.3,1.2c0.3,0.3,0.7,0.5,1.2,0.5c0.8,0,1.5-0.5,2-1.4c0.5-0.9,0.8-2.1,0.8-3.4c0-1-0.3-1.8-1-2.5c-0.7-0.6-1.6-1-2.7-1c-1.3,0-2.4,0.4-3.2,1.3c-0.8,0.8-1.2,1.8-1.2,3c0,0.7,0.2,1.3,0.6,1.8c0.1,0.2,0.2,0.3,0.1,0.5l-0.2,0.7c-0.1,0.2-0.2,0.3-0.5,0.2c-0.6-0.3-1.1-0.7-1.4-1.3c-0.3-0.6-0.5-1.3-0.5-2.1c0-0.7,0.1-1.3,0.4-2c0.3-0.7,0.7-1.3,1.2-1.8c0.5-0.5,1.2-1,2-1.3S-488.1,494-487,494z"/></svg>
