<svg version="1.1" class="share-favorites-icon" id="Layer_1" xmlns="http://www.w3.org/2000/svg" xmlns:xlink="http://www.w3.org/1999/xlink" x="0px" y="0px"width="285.7px" height="236.3px" viewBox="0 0 285.7 236.3" style="enable-background:new 0 0 285.7 236.3;" xml:space="preserve"><metadata><?xpacket begin="﻿" id="W5M0MpCehiHzreSzNTczkc9d"?><x:xmpmeta xmlns:x="adobe:ns:meta/" x:xmptk="Adobe XMP Core 5.6-c067 79.157747, 2015/03/30-23:40:42 "><rdf:RDF xmlns:rdf="http://www.w3.org/1999/02/22-rdf-syntax-ns#"><rdf:Description rdf:about=""/></rdf:RDF></x:xmpmeta><?xpacket end="w"?></metadata><path class="st0" d="M199.8,234.5H1.9l-0.1-0.4c0-0.1-0.7-6.7,0.6-14.3c1.8-10.1,6.5-17.5,13.6-21.2c16.1-8.5,56.1-30.8,59.7-32.9v-7.2c-22.7,0.7-33.8-15.1-33.9-15.2l-0.3-0.4l0.4-0.3c0,0,2.2-1.6,4.9-8.7c2.5-6.5,5.8-19,7.9-42C58.7,48.5,89,46.6,91.2,46.5c12.6-6.6,24.8-6.8,35.1-0.6c14.6,8.8,22.6,28.3,22.6,42.1c0,21.7,12.8,56.5,13,56.8l0.1,0.3l-0.2,0.2c-8.5,9.4-32.1,11.8-35.9,12.1v8.2c3.6,1.8,40.6,20.2,56.7,26.8c17.1,7,17.3,40.1,17.3,41.5V234.5z"/><path class="st0" d="M163.3,88c0,15.8,8.7,42.7,12.1,51.8l3.2,8.5l-6.1,6.7c-3.9,4.3-9.3,7.6-15,10c11.1,5.3,23.2,11,30.6,14.1c7.4,3.1,12.8,8.5,16.6,14.9h79.7c0,0,0-34-17-41s-57-27-57-27v-9c0,0,27-2,36-12c0,0-13-35-13-57s-21-60-57-41c0,0-26,0-34,32.9C156.1,52.8,163.3,72.7,163.3,88z"/></svg>
