<?xml version="1.0" encoding="utf-8"?>
<!-- Generator: Adobe Illustrator 19.0.0, SVG Export Plug-In . SVG Version: 6.00 Build 0)  -->
<!DOCTYPE svg PUBLIC "-//W3C//DTD SVG 1.1//EN" "http://www.w3.org/Graphics/SVG/1.1/DTD/svg11.dtd">
<svg version="1.1" id="Layer_1" xmlns="http://www.w3.org/2000/svg" xmlns:xlink="http://www.w3.org/1999/xlink" x="0px" y="0px"
	 width="16.6px" height="13.8px" viewBox="-491 493.2 16.6 13.8" style="enable-background:new -491 493.2 16.6 13.8;"
	 xml:space="preserve">
<style type="text/css">
	.st0{fill:#333333;}
</style>
<path id="XMLID_14_" class="st0" d="M-474.5,495.2c-0.4,0.7-1,1.2-1.6,1.7v0.4c0,0.9-0.1,1.7-0.4,2.6c-0.2,0.9-0.6,1.7-1.1,2.5
	c-0.5,0.8-1.1,1.5-1.8,2.1c-0.7,0.6-1.6,1.1-2.6,1.4c-1,0.4-2.1,0.5-3.2,0.5c-1.9,0-3.6-0.4-4.9-1.3c0.3,0,0.5,0.1,0.8,0.1
	c1.4,0,2.7-0.5,4-1.5c-0.7,0-1.3-0.2-1.9-0.6c-0.5-0.4-0.9-0.9-1.1-1.6c0.2,0,0.4,0.1,0.6,0.1c0.3,0,0.6,0,0.9-0.1
	c-0.7-0.1-1.3-0.5-1.8-1.1c-0.5-0.6-0.7-1.3-0.7-2v0c0.5,0.3,0.9,0.4,1.4,0.4c-1-0.6-1.4-1.5-1.4-2.7c0-0.5,0.1-1,0.4-1.6
	c0.8,1,1.8,1.8,2.9,2.3c1.1,0.6,2.4,0.9,3.7,1c0-0.2-0.1-0.5-0.1-0.7c0-0.9,0.3-1.6,0.9-2.3c0.6-0.6,1.4-0.9,2.3-0.9
	c0.9,0,1.7,0.3,2.4,1c0.7-0.1,1.4-0.4,2-0.8c-0.2,0.8-0.7,1.4-1.4,1.8C-475.7,495.7-475.1,495.5-474.5,495.2z"/>
</svg>
