<svg version="1.1" id="Layer_1" xmlns="http://www.w3.org/2000/svg" xmlns:xlink="http://www.w3.org/1999/xlink" x="0px" y="0px" width="16.8px" height="11.1px" viewBox="-491 495.9 16.8 11.1" style="enable-background:new -491 495.9 16.8 11.1;" xml:space="preserve"><defs><filter id="dropshadow" width="2" height="2"><feGaussianBlur in="SourceAlpha" stdDeviation="1" /><feOffset dx="1" dy="1" result="offsetblur" /><feFlood flood-color="black" flood-opacity="0.3" /><feComposite in2="offsetblur" operator="in" /><feMerge><feMergeNode/><feMergeNode in="SourceGraphic" /></feMerge></filter></defs><path id="XMLID_20_" class="st0" d="M-483.2,495.9c2.9,0,4.7,0.1,5.5,0.2c1,0.2,1.6,0.6,1.9,1.2c0.3,0.5,0.4,1.6,0.4,3.1c0,0.2,0,0.6,0,1c0,1.9-0.1,3.1-0.2,3.7c-0.2,0.7-0.6,1.2-1.3,1.5c-0.7,0.3-2.2,0.4-4.5,0.4c-0.4,0-1,0-1.8,0c-2.9,0-4.7-0.1-5.5-0.2c-1-0.2-1.6-0.6-1.9-1.2c-0.3-0.5-0.4-1.6-0.4-3.1c0-0.2,0-0.6,0-1c0-1.9,0.1-3.1,0.2-3.7c0.2-0.7,0.6-1.2,1.3-1.5c0.7-0.3,2.2-0.4,4.5-0.4C-484.6,495.9-484,495.9-483.2,495.9z M-485.1,504.4l4.9-2.9l-4.9-2.9V504.4z"/></svg>
